<?xml version="1.0" standalone="no"?>
<!DOCTYPE svg PUBLIC "-//W3C//DTD SVG 1.1//EN" "http://www.w3.org/Graphics/SVG/1.1/DTD/svg11.dtd" >
<svg xmlns="http://www.w3.org/2000/svg" xmlns:xlink="http://www.w3.org/1999/xlink" version="1.1">
<metadata>
Created by FontForge 20161013 at Fri Dec 18 21:14:58 1998
 By ,,,
1998 COMPUTORIUM
</metadata>
<defs>
<font id="FuturaOblique" horiz-adv-x="1024" >
  <font-face 
    font-family="Futura"
    font-weight="28926"
    font-style="oblique"
    font-stretch="normal"
    units-per-em="2048"
    panose-1="2 11 33 2 2 2 4 2 3 3"
    ascent="1638"
    descent="-410"
    x-height="887"
    cap-height="1464"
    bbox="-342 -483 5726 1972"
    underline-thickness="80"
    underline-position="-343"
    unicode-range="U+0020-F002"
  />
<missing-glyph 
d="M128 0v1972h768v-1972h-768zM256 128h512v1716h-512v-1716z" />
    <glyph glyph-name=".notdef" 
d="M128 0v1972h768v-1972h-768zM256 128h512v1716h-512v-1716z" />
    <glyph glyph-name=".null" horiz-adv-x="0" 
 />
    <glyph glyph-name="nonmarkingreturn" horiz-adv-x="590" 
 />
    <glyph glyph-name="space" unicode=" " horiz-adv-x="590" 
 />
    <glyph glyph-name="exclam" unicode="!" horiz-adv-x="635" 
d="M256 303v1194h123v-1194h-123zM215 63q0 43 29.5 73t72.5 30t73 -30t30 -73t-30 -72.5t-73 -29.5t-72.5 29.5t-29.5 72.5z" />
    <glyph glyph-name="quotedbl" unicode="&#x22;" horiz-adv-x="551" 
d="M451 1434v-553h-86v553h86zM186 1434v-553h-86v553h86z" />
    <glyph glyph-name="numbersign" unicode="#" horiz-adv-x="1575" 
d="M979 866h-270l-99 -282h269zM915 1454l-174 -498h271l176 498h110l-174 -498h322l-31 -90h-323l-101 -282h348l-30 -90h-351l-174 -494h-112l176 494h-270l-179 -494h-110l174 494h-334l31 90h336l100 282h-360l28 90h365l176 498h110z" />
    <glyph glyph-name="dollar" unicode="$" horiz-adv-x="1180" 
d="M555 1352q-86 -14 -141 -72q-58 -60 -58 -145q0 -155 199 -252v469zM635 117q114 15 175 98q58 77 58 195q0 190 -233 301v-594zM635 -168h-80v174q-276 0 -395 268l114 58q62 -199 281 -217v633q-152 73 -227 145q-105 102 -105 237q0 143 97 232q87 80 235 102v101h80
v-99q206 -24 293 -178l-105 -57q-57 112 -188 120v-505q176 -84 252 -159q108 -108 108 -267q0 -168 -97 -279.5t-263 -138.5v-170z" />
    <glyph glyph-name="percent" unicode="%" horiz-adv-x="1497" 
d="M967 336q0 -283 174 -283q176 0 176 283q0 280 -176 280q-174 0 -174 -280zM1436 334q0 -160 -66 -258q-77 -115 -229 -115t-228 115q-65 97 -65 258t65 259q76 116 228 116t229 -116q66 -98 66 -259zM182 1106q0 -283 174 -283q176 0 176 283q0 280 -176 280
q-174 0 -174 -280zM651 1104q0 -161 -66 -259q-77 -116 -229 -116t-228 116q-65 99 -65 259t65 259q76 116 228 116t229 -116q66 -98 66 -259zM270 -39l842 1518h109l-842 -1518h-109z" />
    <glyph glyph-name="ampersand" unicode="&#x26;" horiz-adv-x="1311" 
d="M895 301l-383 467l-66 -47q-116 -83 -162 -139q-71 -86 -71 -195q0 -130 89.5 -218.5t219.5 -88.5q172 0 373 221zM551 907l65 45q154 107 154 236q0 73 -54 122q-52 46 -126 46q-79 0 -132 -44q-57 -46 -57 -124t68 -170zM1145 0l-182 215q-207 -242 -447 -242
q-185 0 -306 111q-124 114 -124 297q0 246 363 473l-56 74q-114 151 -114 268q0 124 101 197q90 65 218 65q125 0 205 -73q84 -76 84 -199q0 -188 -271 -357l361 -446q97 118 174 242l86 -50q-101 -165 -199 -280l252 -295h-145z" />
    <glyph glyph-name="quotesingle" unicode="'" horiz-adv-x="285" 
d="M186 1434v-553h-86v553h86z" />
    <glyph glyph-name="parenleft" unicode="(" horiz-adv-x="559" 
d="M512 1483q-213 -432 -213 -932q0 -544 213 -944l-90 -53q-238 444 -238 1001q0 545 238 977z" />
    <glyph glyph-name="parenright" unicode=")" horiz-adv-x="559" 
d="M47 1483l90 49q238 -428 238 -977q0 -557 -238 -1001l-90 53q215 404 215 944q0 496 -215 932z" />
    <glyph glyph-name="asterisk" unicode="*" horiz-adv-x="854" 
d="M162 928l-43 78l233 122l-233 129l43 78l227 -145l-6 274h88l-8 -274l229 143l43 -76l-233 -129l233 -122l-47 -78l-227 139l8 -266h-86l8 264z" />
    <glyph glyph-name="plus" unicode="+" horiz-adv-x="1706" 
d="M893 1221v-570h559v-82h-559v-569h-80v569h-559v82h559v570h80z" />
    <glyph glyph-name="comma" unicode="," horiz-adv-x="590" 
d="M324 254l145 -61l-264 -515l-84 39z" />
    <glyph glyph-name="hyphen" unicode="-" horiz-adv-x="711" 
d="M137 506h436v-129h-436v129z" />
    <glyph glyph-name="hyphen" unicode="&#x2010;" horiz-adv-x="711" 
d="M137 506h436v-129h-436v129z" />
    <glyph glyph-name="period" unicode="." horiz-adv-x="590" 
d="M193 84q0 43 29.5 72.5t72.5 29.5t72.5 -29.5t29.5 -72.5t-29.5 -72.5t-72.5 -29.5t-72.5 29.5t-29.5 72.5z" />
    <glyph glyph-name="slash" unicode="/" horiz-adv-x="825" 
d="M717 1497h108l-716 -1687h-109z" />
    <glyph glyph-name="zero" unicode="0" horiz-adv-x="1180" 
d="M236 717q0 -238 64 -403q91 -234 292 -234q354 0 354 641q0 639 -358 639q-200 0 -290 -238q-62 -166 -62 -405zM588 -39q-263 0 -390 263q-96 200 -96 495q0 298 97 497q127 263 393 263t392 -263q95 -199 95 -497q0 -302 -95 -498q-126 -260 -396 -260z" />
    <glyph glyph-name="one" unicode="1" horiz-adv-x="1180" 
d="M545 0v1331h-264l63 119h330v-1450h-129z" />
    <glyph glyph-name="two" unicode="2" horiz-adv-x="1180" 
d="M1012 115v-115h-940l411 451q391 425 391 612q0 137 -94 219q-90 78 -229 78q-153 0 -238 -98q-80 -93 -80 -248h-131v14q0 212 125 331.5t338 119.5q198 0 321 -104q132 -110 132 -304q0 -219 -345 -602l-9 -10l-322 -344h670z" />
    <glyph glyph-name="three" unicode="3" horiz-adv-x="1180" 
d="M242 368q18 -288 319 -288q150 0 236 79q90 82 90 230q0 150 -91 233q-87 80 -239 80h-28q-18 -1 -27 -1v126l41 -3q14 -1 24 -1q133 0 212 64q85 70 85 200q0 126 -80 202q-79 73 -206 73q-248 0 -277 -236h-143q18 169 135 263q112 90 285 90q181 0 298 -97
q125 -105 125 -282q0 -262 -253 -340q278 -94 278 -371q0 -203 -133 -318q-126 -110 -332 -110q-205 0 -324 101q-123 105 -139 307z" />
    <glyph glyph-name="four" unicode="4" horiz-adv-x="1180" 
d="M721 485v660l-461 -660h461zM721 0v371h-660l793 1128v-1014h150v-114h-150v-371h-133z" />
    <glyph glyph-name="five" unicode="5" horiz-adv-x="1180" 
d="M350 883q114 49 217 49q208 0 335.5 -126.5t127.5 -334.5q0 -227 -134 -368q-136 -144 -361 -144q-307 0 -453 281l104 77q124 -237 355 -237q167 0 262 110q90 103 90 273q0 166 -98.5 260t-264.5 94q-187 0 -303 -106l-41 4l187 735h592v-113h-500z" />
    <glyph glyph-name="six" unicode="6" horiz-adv-x="1180" 
d="M260 416q0 -153 87 -245q89 -95 241 -95q154 0 242 104q83 97 83 254q0 146 -89 239t-234 93q-150 0 -242 -101q-88 -97 -88 -249zM391 805q116 74 234 74q194 0 312 -130q114 -125 114 -321q0 -211 -135 -340t-347 -129q-205 0 -325.5 122t-120.5 327q0 155 95 331
q48 90 192 291l342 477l108 -67z" />
    <glyph glyph-name="seven" unicode="7" horiz-adv-x="1180" 
d="M223 18l668 1319h-707v113h899l-737 -1495z" />
    <glyph glyph-name="eight" unicode="8" horiz-adv-x="1180" 
d="M590 80q151 0 239.5 84.5t88.5 234.5q0 151 -88.5 237.5t-239.5 86.5q-152 0 -239 -86t-87 -238q0 -151 87 -235t239 -84zM594 842q124 0 198 67.5t74 190.5q0 122 -75.5 192t-198.5 70t-198 -70t-75 -192t77 -192q74 -66 198 -66zM412 788q-232 76 -232 332
q0 167 125 267q115 92 287 92q180 0 292 -96q117 -102 117 -279q0 -230 -231 -316q136 -36 212 -144q73 -103 73 -247q0 -209 -128 -325q-124 -111 -335 -111q-210 0 -335 110q-132 115 -132 322q0 147 72 250q76 109 215 145z" />
    <glyph glyph-name="nine" unicode="9" horiz-adv-x="1180" 
d="M915 1022q0 153 -88 247.5t-239 94.5q-154 0 -242 -104q-84 -97 -84 -254q0 -146 88.5 -240t233.5 -94q150 0 242 101q89 98 89 249zM782 633q-109 -72 -231 -72q-194 0 -313 128q-115 125 -115 321q0 211 136 341q133 128 345 128q205 0 327 -122t122 -327
q0 -154 -95 -331q-54 -101 -194 -291l-350 -476l-109 66z" />
    <glyph glyph-name="colon" unicode=":" horiz-adv-x="635" 
d="M215 84q0 43 29.5 72.5t72.5 29.5t73 -29.5t30 -72.5t-30 -72.5t-73 -29.5t-72.5 29.5t-29.5 72.5zM215 760q0 43 29.5 72.5t72.5 29.5t73 -29.5t30 -72.5t-30 -73t-73 -30t-72.5 30t-29.5 73z" />
    <glyph glyph-name="semicolon" unicode=";" horiz-adv-x="635" 
d="M301 760q0 43 29.5 72.5t72.5 29.5t73 -29.5t30 -72.5t-30 -73t-73 -30t-72.5 30t-29.5 73zM332 254l145 -61l-264 -515l-84 39z" />
    <glyph glyph-name="less" unicode="&#x3c;" horiz-adv-x="1706" 
d="M1442 1034l-1045 -424l1045 -424v-88l-1178 482v61l1178 483v-90z" />
    <glyph glyph-name="equal" unicode="=" horiz-adv-x="1706" 
d="M1452 469v-82h-1198v82h1198zM1452 831v-79h-1198v79h1198z" />
    <glyph glyph-name="greater" unicode="&#x3e;" horiz-adv-x="1706" 
d="M1442 641v-61l-1178 -482v88l1045 424l-1045 424v90z" />
    <glyph glyph-name="question" unicode="?" horiz-adv-x="1053" 
d="M401 63q0 43 30 73t73 30t72.5 -30t29.5 -73t-29.5 -72.5t-72.5 -29.5t-73 29.5t-30 72.5zM291 1096h-119v32q0 171 96 270t267 99q153 0 243 -90t90 -242q0 -126 -67 -212q-50 -63 -176 -144l-72 -45q-199 -123 -199 -232q0 -74 46.5 -116.5t121.5 -42.5q187 0 187 178
v18h110v-24q0 -279 -311 -279q-122 0 -201.5 73.5t-79.5 195.5q0 100 66 179q46 55 151 124q21 13 73 46q226 143 226 273q0 98 -58.5 155.5t-156.5 57.5q-237 0 -237 -268v-6z" />
    <glyph glyph-name="at" unicode="@" horiz-adv-x="2048" 
d="M1303 827l61 129h80l-137 -553q-21 -85 -21 -108q0 -92 117 -92q99 0 204.5 77t165.5 217q56 129 56 271q0 293 -222 458q-199 148 -503 148q-338 0 -569 -192q-310 -257 -310 -672q0 -344 239 -538q221 -179 574 -179q338 0 623 193l29 -45q-292 -220 -648 -220
q-376 0 -620 185q-301 228 -301 616q0 330 198 572q291 356 795 356q334 0 553 -168q260 -199 260 -504q0 -346 -244 -540q-140 -111 -305 -111q-192 0 -192 145q0 12 3 34q1 3 1 5q-102 -184 -291 -184q-313 0 -313 326q0 213 122 371q132 173 339 173q193 0 256 -170z
M1219 467l63 254q-45 203 -233 203q-170 0 -271 -160q-88 -138 -88 -318q0 -110 53 -175q57 -70 164 -70q116 0 202 77q81 73 110 189z" />
    <glyph glyph-name="A" unicode="A" horiz-adv-x="1223" 
d="M356 610h510l-250 637zM-18 0l643 1522l616 -1522h-145l-187 496h-598l-194 -496h-135z" />
    <glyph glyph-name="B" unicode="B" horiz-adv-x="1133" 
d="M315 813h166q165 0 240 47q94 60 94 213q0 162 -89 224q-73 51 -245 51h-166v-535zM315 115h170q224 0 293 53q103 79 103 235q0 185 -117 254q-69 41 -250 41h-199v-583zM182 0v1464h254q133 0 190 -7q112 -15 177 -64q149 -112 149 -310q0 -115 -59 -196
q-61 -84 -170 -111q141 -21 221 -112.5t80 -233.5q0 -205 -125 -321q-81 -75 -218 -97q-71 -12 -243 -12h-256z" />
    <glyph glyph-name="C" unicode="C" horiz-adv-x="1464" 
d="M1358 1196q-213 184 -463 184q-287 0 -463 -180.5t-176 -468.5q0 -290 176 -467q179 -180 445 -180q256 0 473 170v-156q-224 -137 -467 -137q-334 0 -552 216t-218 554q0 337 219.5 551.5t550.5 214.5q281 0 477 -154z" />
    <glyph glyph-name="D" unicode="D" horiz-adv-x="1427" 
d="M315 115h187q179 0 254 12q146 22 229 100q186 173 186 506q0 339 -188 506q-91 81 -249 104q-77 11 -275 11h-144v-1239zM182 0v1464h228q242 0 340 -13q196 -27 313 -120q250 -199 250 -600q0 -406 -248 -596q-117 -90 -291 -118q-103 -17 -319 -17h-273z" />
    <glyph glyph-name="E" unicode="E" horiz-adv-x="1051" 
d="M182 0v1464h725v-125h-592v-458h592v-125h-592v-631h592v-125h-725z" />
    <glyph glyph-name="F" unicode="F" horiz-adv-x="1026" 
d="M182 0v1464h725v-125h-592v-458h570v-125h-570v-756h-133z" />
    <glyph glyph-name="G" unicode="G" horiz-adv-x="1673" 
d="M1382 1096q-181 280 -512 280q-281 0 -451 -192q-163 -184 -163 -469q0 -271 178 -453q174 -178 436 -178q242 0 396 140q159 144 163 384h-505v115h651v-16q0 -345 -185 -543q-190 -203 -532 -203q-339 0 -544 216q-201 211 -201 552q0 328 202 543q212 225 537 225
q452 0 627 -317z" />
    <glyph glyph-name="H" unicode="H" horiz-adv-x="1427" 
d="M182 0v1464h133v-594h797v594h133v-1464h-133v756h-797v-756h-133z" />
    <glyph glyph-name="I" unicode="I" horiz-adv-x="498" 
d="M182 0v1464h133v-1464h-133z" />
    <glyph glyph-name="J" unicode="J" horiz-adv-x="764" 
d="M467 401v1063h133v-1149q0 -354 -311 -354q-188 0 -283 152l94 86q82 -111 185 -111q116 0 157 106q25 66 25 207z" />
    <glyph glyph-name="K" unicode="K" horiz-adv-x="1176" 
d="M182 0v1464h133v-686l662 686h174l-694 -700l727 -764h-193l-676 743v-743h-133z" />
    <glyph glyph-name="L" unicode="L" horiz-adv-x="846" 
d="M182 0v1464h133v-1339h502v-125h-635z" />
    <glyph glyph-name="M" unicode="M" horiz-adv-x="1712" 
d="M850 -57l-514 1175l-111 -1118h-137l199 1526l561 -1303l582 1303l188 -1526h-137l-109 1118z" />
    <glyph glyph-name="N" unicode="N" horiz-adv-x="1526" 
d="M182 0v1526l1037 -1225v1163h124v-1507l-1036 1227v-1184h-125z" />
    <glyph glyph-name="O" unicode="O" horiz-adv-x="1792" 
d="M895 80q268 0 455.5 188.5t187.5 460.5q0 270 -188 461q-185 188 -455 188q-267 0 -454 -189t-187 -460q0 -270 188 -461q185 -188 453 -188zM1679 729q0 -319 -229.5 -543.5t-554.5 -224.5t-553.5 225.5t-228.5 542.5q0 320 229 547q223 221 553 221q331 0 555 -221
q229 -226 229 -547z" />
    <glyph glyph-name="P" unicode="P" 
d="M182 0v1464h267q260 0 362 -73q145 -104 145 -330q0 -224 -136 -321q-116 -83 -351 -83h-154v-657h-133zM315 774h91q205 0 287 40q122 59 122 237q0 131 -76 217q-49 56 -156 72q-52 8 -177 8h-91v-574z" />
    <glyph glyph-name="Q" unicode="Q" horiz-adv-x="1792" 
d="M926 600h164l272 -317q176 190 176 448q0 269 -188 459t-455 190q-265 0 -452 -189t-187 -460q0 -273 187 -460t456 -187q223 0 367 121zM1692 -102h-162l-178 206q-210 -135 -469 -135q-319 0 -541 219q-229 226 -229 543q0 319 228.5 542.5t553.5 223.5
q327 0 555.5 -223.5t228.5 -542.5q0 -318 -235 -545z" />
    <glyph glyph-name="R" unicode="R" horiz-adv-x="1081" 
d="M315 1348v-541h134q168 0 241 47q92 59 92 215q0 160 -89 225q-75 54 -244 54h-134zM1071 0h-162l-514 698h-80v-698h-133v1464h269q475 0 475 -399q0 -174 -102.5 -270.5t-278.5 -96.5z" />
    <glyph glyph-name="S" unicode="S" horiz-adv-x="1020" 
d="M70 246l114 61q67 -227 299 -227q142 0 220 84q75 82 75 225q0 126 -83 209q-53 53 -195 129q-181 96 -250 161q-117 109 -117 259q0 161 110 259q105 93 269 93q222 0 324 -186l-103 -62q-66 129 -229 129q-108 0 -172 -63.5t-64 -171.5q0 -154 254 -287l70 -37
q165 -91 229 -168q84 -102 84 -264q0 -198 -115 -313t-313 -115q-291 0 -407 285z" />
    <glyph glyph-name="T" unicode="T" horiz-adv-x="1018" 
d="M442 0v1339h-403v125h940v-125h-404v-1339h-133z" />
    <glyph glyph-name="U" unicode="U" horiz-adv-x="1417" 
d="M176 1464h131v-956q0 -428 402 -428q399 0 399 428v956h133v-913q0 -590 -532 -590q-533 0 -533 590v913z" />
    <glyph glyph-name="V" unicode="V" horiz-adv-x="1128" 
d="M555 -57l-573 1521h153l422 -1192l444 1192h146z" />
    <glyph glyph-name="W" unicode="W" horiz-adv-x="1839" 
d="M530 -57l-505 1521h139l366 -1169l390 1227l405 -1217l352 1159h138l-490 -1521l-405 1243z" />
    <glyph glyph-name="X" unicode="X" horiz-adv-x="991" 
d="M121 0h-146l447 770l-404 694h150l330 -581l333 581h144l-404 -690l445 -774h-148l-372 649z" />
    <glyph glyph-name="Y" unicode="Y" horiz-adv-x="1118" 
d="M496 0v674l-486 790h160l393 -671l395 671h152l-481 -790v-674h-133z" />
    <glyph glyph-name="Z" unicode="Z" horiz-adv-x="1147" 
d="M25 0l870 1343h-743v121h970l-866 -1341h778v-123h-1009z" />
    <glyph glyph-name="bracketleft" unicode="[" horiz-adv-x="559" 
d="M221 1497h291v-98h-174v-1712h174v-99h-291v1909z" />
    <glyph glyph-name="backslash" unicode="\" horiz-adv-x="825" 
d="M717 -190l-717 1687h109l716 -1687h-108z" />
    <glyph glyph-name="bracketright" unicode="]" horiz-adv-x="559" 
d="M338 1497v-1909h-291v99h176v1712h-176v98h291z" />
    <glyph glyph-name="asciicircum" unicode="^" horiz-adv-x="2048" 
d="M1081 1458l541 -557h-125l-473 469l-475 -469h-125l539 557h118z" />
    <glyph glyph-name="underscore" unicode="_" 
d="M1024 -403v-80h-1024v80h1024z" />
    <glyph glyph-name="grave" unicode="`" 
d="M645 1030h-94l-283 350h164z" />
    <glyph glyph-name="a" unicode="a" horiz-adv-x="1108" 
d="M221 434q0 -160 68 -253q77 -105 231 -105t233 118q68 102 68 263q0 153 -72 246q-79 104 -227 104q-152 0 -232 -115q-69 -99 -69 -258zM819 0v162q-90 -201 -311 -201q-201 0 -316 141q-108 131 -108 336q0 200 104 335q114 147 308 147q232 0 323 -195v162h123v-887
h-123z" />
    <glyph glyph-name="b" unicode="b" horiz-adv-x="1108" 
d="M883 434q0 159 -69 258q-80 115 -232 115q-148 0 -227 -104q-70 -93 -70 -246q0 -161 68 -263q79 -118 233 -118q297 0 297 358zM287 0h-123v1550h123v-825q91 195 321 195q194 0 308 -147q104 -135 104 -335q0 -205 -108 -336q-115 -141 -316 -141q-220 0 -309 201v-162
z" />
    <glyph glyph-name="c" unicode="c" horiz-adv-x="934" 
d="M854 725q-124 86 -276 86q-170 0 -267 -110q-94 -105 -94 -277q0 -158 101.5 -258t259.5 -100q148 0 290 100v-135q-130 -74 -313 -74q-206 0 -334.5 134t-128.5 341q0 218 135 353t353 135q162 0 276 -60z" />
    <glyph glyph-name="d" unicode="d" horiz-adv-x="1108" 
d="M225 434q0 -160 68 -253q77 -105 231 -105q153 0 232 119q67 101 67 262q0 153 -70 246q-79 104 -227 104q-152 0 -232 -115q-69 -99 -69 -258zM821 0v162q-89 -201 -309 -201q-201 0 -316 141q-108 131 -108 336q0 200 104 335q114 147 308 147q230 0 321 -195v825h125
v-1550h-125z" />
    <glyph glyph-name="e" unicode="e" horiz-adv-x="1018" 
d="M780 545q-19 256 -276 256q-114 0 -188.5 -70.5t-86.5 -185.5h551zM926 440h-705q5 -157 74 -255q80 -113 229 -113q197 0 295 213l113 -62q-132 -262 -408 -262q-202 0 -322 137q-114 131 -114 336q0 208 110 342q119 144 322 144q193 0 303 -132q103 -124 103 -321v-27
z" />
    <glyph glyph-name="f" unicode="f" horiz-adv-x="530" 
d="M193 0v782h-166v105h166v256q0 214 23 284q47 142 210 142q64 0 119 -21l-23 -108q-48 24 -88 24q-81 0 -106 -88q-13 -45 -13 -153v-336h195v-105h-195v-782h-122z" />
    <glyph glyph-name="g" unicode="g" horiz-adv-x="1108" 
d="M944 887v-733q0 -317 -41 -404q-93 -196 -381 -196q-353 0 -395 276h154q30 -166 251 -166q237 0 278 185q9 44 9 135v180q-88 -203 -319 -203q-199 0 -310 143q-100 130 -100 336q0 205 104 337q113 143 312 143q103 0 187 -52q88 -54 126 -147v166h125zM520 807
q-150 0 -229 -113q-68 -99 -68 -256q0 -155 64 -250q74 -112 221 -112q153 0 237 113q76 101 76 260q0 157 -71 252q-79 106 -230 106z" />
    <glyph glyph-name="h" unicode="h" horiz-adv-x="1067" 
d="M164 0v1550h117v-800q108 170 313 170q151 0 235 -83.5t84 -234.5v-602h-125v547q0 262 -227 262q-274 0 -274 -346v-463h-123z" />
    <glyph glyph-name="i" unicode="i" horiz-adv-x="471" 
d="M141 1233q0 39 28 66.5t67 27.5t67.5 -27.5t28.5 -66.5q0 -41 -27.5 -67.5t-68.5 -26.5q-40 0 -67.5 27t-27.5 67zM172 0v887h127v-887h-127z" />
    <glyph glyph-name="j" unicode="j" horiz-adv-x="471" 
d="M141 1233q0 39 28 66.5t67 27.5t67.5 -27.5t28.5 -66.5q0 -41 -27.5 -67.5t-68.5 -26.5q-40 0 -67.5 27t-27.5 67zM172 -446v1333h127v-1333h-127z" />
    <glyph glyph-name="k" unicode="k" horiz-adv-x="938" 
d="M164 0v1550h123v-1056l442 393h170l-475 -398l510 -489h-170l-477 459v-459h-123z" />
    <glyph glyph-name="l" unicode="l" horiz-adv-x="471" 
d="M299 0h-127v1550h127v-1550z" />
    <glyph glyph-name="m" unicode="m" horiz-adv-x="1616" 
d="M287 0h-123v887h123v-139q90 172 282 172q196 0 271 -175q105 175 309 175q145 0 225 -89q78 -85 78 -231v-600h-123v551q0 262 -213 262q-246 0 -246 -346v-467h-122v551q0 262 -209 262q-252 0 -252 -346v-467z" />
    <glyph glyph-name="n" unicode="n" horiz-adv-x="1067" 
d="M164 0v887h117v-137q108 170 313 170q151 0 235 -83.5t84 -234.5v-602h-125v547q0 262 -227 262q-274 0 -274 -346v-463h-123z" />
    <glyph glyph-name="o" unicode="o" horiz-adv-x="1143" 
d="M571 76q150 0 251 108q98 105 98 256q0 152 -99 258.5t-250 106.5t-249.5 -106.5t-98.5 -258.5q0 -151 98 -256q100 -108 250 -108zM567 -39q-193 0 -340 145q-137 135 -137 336q0 199 139.5 338.5t337.5 139.5q202 0 344 -140t142 -338q0 -197 -140 -336
q-146 -145 -346 -145z" />
    <glyph glyph-name="p" unicode="p" horiz-adv-x="1108" 
d="M883 438q0 157 -67 255q-78 114 -228 114q-151 0 -231 -106q-72 -95 -72 -252q0 -158 77 -260q85 -113 238 -113q147 0 221 112q62 95 62 250zM164 -446v1333h119v-166q106 199 317 199q199 0 312 -144q104 -131 104 -336t-101 -335q-111 -144 -309 -144q-217 0 -323 203
v-610h-119z" />
    <glyph glyph-name="q" unicode="q" horiz-adv-x="1108" 
d="M520 807q-150 0 -229 -113q-68 -99 -68 -256q0 -155 64 -250q74 -112 221 -112q153 0 237 113q76 101 76 260q0 157 -71 252q-79 106 -230 106zM944 -446h-119v610q-106 -203 -325 -203q-198 0 -309 144q-101 130 -101 335t104 337q113 143 312 143q214 0 319 -199v166
h119v-1333z" />
    <glyph glyph-name="r" unicode="r" horiz-adv-x="645" 
d="M287 709q125 211 286 211q50 0 105 -19l-40 -116q-47 14 -83 14q-127 0 -203 -123q-65 -105 -65 -240v-436h-123v887h123v-178z" />
    <glyph glyph-name="s" unicode="s" horiz-adv-x="782" 
d="M63 158l117 67q58 -149 219 -149q73 0 119 35q51 39 51 110q0 102 -181 173q-11 5 -30 12q-118 47 -171 91q-81 67 -81 167q0 119 85 191q81 67 202 67q222 0 295 -181l-113 -63q-43 129 -190 129q-61 0 -102 -35q-45 -37 -45 -96q0 -70 75 -115q33 -20 136 -55
q127 -44 179 -94q68 -65 68 -183q0 -132 -98 -204q-87 -64 -223 -64q-237 0 -312 197z" />
    <glyph glyph-name="t" unicode="t" horiz-adv-x="508" 
d="M190 782h-163v105h163v364h121v-364h178v-105h-178v-782h-121v782z" />
    <glyph glyph-name="u" unicode="u" horiz-adv-x="1079" 
d="M287 887v-443q0 -175 40 -255q57 -113 212 -113q154 0 212 114q42 81 42 254v443h122v-506q0 -420 -374 -420q-377 0 -377 420v506h123z" />
    <glyph glyph-name="v" unicode="v" horiz-adv-x="874" 
d="M31 887h135l272 -672l271 672h137l-408 -944z" />
    <glyph glyph-name="w" unicode="w" horiz-adv-x="1327" 
d="M379 -57l-354 944h129l231 -639l279 686l278 -686l232 639h129l-355 -944l-282 706z" />
    <glyph glyph-name="x" unicode="x" horiz-adv-x="807" 
d="M31 887h153l217 -326l217 326h150l-299 -426l330 -461h-152l-248 358l-245 -358h-154l332 461z" />
    <glyph glyph-name="y" unicode="y" horiz-adv-x="825" 
d="M43 887h131l254 -694l234 694h131l-459 -1333h-127l155 452z" />
    <glyph glyph-name="z" unicode="z" horiz-adv-x="780" 
d="M23 0l495 776h-461v111h674l-491 -776h505v-111h-722z" />
    <glyph glyph-name="braceleft" unicode="{" 
d="M848 1389h-37q-143 0 -189 -62q-40 -53 -40 -203v-241q0 -151 -30 -220q-41 -97 -165 -133q124 -36 166 -132q29 -68 29 -220v-241q0 -150 39 -202q46 -61 188 -61h39v-88h-43q-200 0 -268 89q-58 76 -58 286v240q0 151 -53 215q-58 71 -205 71q-8 0 -22.5 -1t-22.5 -1
v90q20 -2 49 -2q145 0 203 72q51 65 51 215v240q0 211 58 287q68 90 268 90h43v-88z" />
    <glyph glyph-name="bar" unicode="|" 
d="M557 1565v-2048h-90v2048h90z" />
    <glyph glyph-name="braceright" unicode="}" 
d="M545 1100v-240q0 -151 53 -216q58 -71 205 -71q8 0 22.5 1t22.5 1v-90q-8 0 -22.5 1t-22.5 1q-147 0 -205 -71q-53 -64 -53 -215v-240q0 -210 -58 -286q-68 -89 -268 -89h-43v88h39q142 0 188 61q39 52 39 202v241q0 151 30 220q43 96 167 132q-125 36 -167 132
q-30 69 -30 221v241q0 150 -40 203q-46 62 -189 62h-37v88h43q200 0 268 -90q58 -76 58 -287z" />
    <glyph glyph-name="asciitilde" unicode="~" horiz-adv-x="1706" 
d="M1530 647q-211 -147 -387 -147q-99 0 -266 61l-22 8q-9 3 -33 12q-166 60 -257 60q-161 0 -387 -160v92q207 146 387 146q102 0 271 -61q15 -6 46 -17q168 -61 261 -61q160 0 387 159v-92z" />
    <glyph glyph-name="nonbreakingspace" unicode="&#xa0;" horiz-adv-x="1180" 
 />
    <glyph glyph-name="exclamdown" unicode="&#xa1;" horiz-adv-x="635" 
d="M256 1157h123v-1157h-123v1157zM215 1395q0 43 29.5 72.5t72.5 29.5t73 -29.5t30 -72.5t-30 -73t-73 -30t-72.5 30t-29.5 73z" />
    <glyph glyph-name="cent" unicode="&#xa2;" horiz-adv-x="1180" 
d="M567 1110q-139 -14 -226 -117.5t-87 -244.5q0 -152 81 -251q83 -102 232 -122v735zM930 1028q-124 80 -282 86l-1 -745q191 21 283 96v-131q-111 -68 -282 -72l-1 -205h-80v207q-198 11 -321 142t-123 329q0 203 122 333q119 128 322 153v161h80v-159q135 0 283 -60v-135
z" />
    <glyph glyph-name="sterling" unicode="&#xa3;" horiz-adv-x="1180" 
d="M100 20q71 134 195 170q80 111 80 205q0 84 -45 205h-230v90h185q-103 214 -103 371q0 191 131 307q125 111 318 111q203 0 319 -112.5t123 -315.5l-127 -22q-3 152 -80 240q-82 93 -231 93q-143 0 -229 -79q-89 -82 -89 -224q0 -129 101 -369h389v-90h-358
q38 -105 38 -176q0 -142 -101 -229q80 -2 223 -59q140 -56 194 -56q120 0 211 143l88 -59q-107 -201 -291 -201q-77 0 -217.5 60.5t-198.5 60.5q-116 0 -209 -125z" />
    <glyph glyph-name="currency" unicode="&#xa4;" horiz-adv-x="1241" 
d="M954 887q0 138 -96.5 234t-234.5 96t-235 -96t-97 -234q0 -139 96.5 -235.5t235.5 -96.5q138 0 234.5 97t96.5 235zM358 1204q117 94 263 94q144 0 264 -94l205 207l59 -59l-207 -205q92 -119 92 -262q0 -146 -92 -262l207 -205l-59 -60l-205 207q-119 -92 -264 -92
t-263 92l-206 -207l-58 60l207 205q-92 117 -92 262q0 143 92 262l-207 205l58 59z" />
    <glyph glyph-name="yen" unicode="&#xa5;" horiz-adv-x="1182" 
d="M530 0v631h-497v98h456l-98 162h-358v100h293l-283 461h147l402 -676l412 676h135l-281 -461h289v-100h-352l-99 -162h451v-98h-490v-631h-127z" />
    <glyph glyph-name="brokenbar" unicode="&#xa6;" 
d="M557 408v-758h-90v758h90zM557 1432v-758h-90v758h90z" />
    <glyph glyph-name="section" unicode="&#xa7;" horiz-adv-x="1042" 
d="M526 254q115 0 195 80.5t80 195.5q0 123 -76 199t-199 76q-116 0 -196 -79.5t-80 -195.5q0 -126 75 -201t201 -75zM176 -92l127 -1q6 -233 227 -233q103 0 162.5 55.5t59.5 157.5q0 101 -83 160q-44 32 -175 80q-105 39 -136 52q-84 36 -125 73q-118 106 -118 278
q0 126 75 220q72 90 195 129q-219 90 -219 297q0 156 110 243q101 80 261 80q348 0 348 -334v-20h-135q-10 246 -222 246q-95 0 -158 -56.5t-63 -150.5q0 -106 81 -170q51 -40 179 -86q178 -64 257 -135q110 -99 110 -258q0 -274 -264 -357q217 -94 217 -305
q0 -148 -105 -240q-99 -88 -250 -88q-161 0 -257 89q-99 91 -99 251v23z" />
    <glyph glyph-name="dieresis" unicode="&#xa8;" 
d="M590 1188q0 40 29 69t69 29t68 -29t28 -69q0 -96 -96 -96q-42 0 -70 27t-28 69zM240 1188q0 40 28 69t68 29t69 -29t29 -69q0 -42 -28 -69t-70 -27q-96 0 -96 96z" />
    <glyph glyph-name="copyright" unicode="&#xa9;" horiz-adv-x="1706" 
d="M1081 918q-42 172 -227 172q-142 0 -211 -121q-55 -96 -55 -250q0 -149 58 -246q70 -119 208 -119q91 0 156 52t84 141h102q-12 -131 -116 -208q-97 -71 -232 -71q-187 0 -288 139q-89 124 -89 318q0 192 96 316q106 135 293 135q125 0 215 -66q97 -71 111 -192h-105z
M1511 721q0 274 -190 465q-193 194 -469 194q-274 0 -461 -190q-196 -199 -196 -469q0 -269 194.5 -463.5t462.5 -194.5q197 0 366.5 113t244.5 294q48 117 48 251zM852 1452q305 0 520 -215q104 -104 157.5 -236t53.5 -280q0 -304 -211 -512q-222 -219 -520 -219
q-297 0 -513 216t-216 515q0 218 124.5 406t324.5 271q131 54 280 54z" />
    <glyph glyph-name="ordfeminine" unicode="&#xaa;" horiz-adv-x="831" 
d="M166 1147q0 -250 225 -250q112 0 171 79q54 71 54 187q0 111 -56 177q-60 69 -169 69q-111 0 -171 -78q-54 -70 -54 -184zM614 844v112q-69 -139 -233 -139q-147 0 -234 94q-84 91 -84 240q0 144 82 238q86 98 228 98q174 0 241 -135v112h93v-620h-93z" />
    <glyph glyph-name="guillemotleft" unicode="&#xab;" horiz-adv-x="782" 
d="M655 49l-254 387l246 395l86 -53l-211 -344l215 -332zM297 49l-252 387l244 395l86 -53l-209 -344l213 -332z" />
    <glyph glyph-name="logicalnot" unicode="&#xac;" horiz-adv-x="1706" 
d="M1452 856v-502h-78v420h-1120v82h1198z" />
    <glyph glyph-name="sfthyphen" unicode="&#xad;" horiz-adv-x="711" 
d="M137 506h436v-129h-436v129z" />
    <glyph glyph-name="registered" unicode="&#xae;" horiz-adv-x="1706" 
d="M852 1077h-168v-313h168q122 0 174 23q80 35 80 139q0 151 -254 151zM874 1155q349 0 349 -233q0 -91 -56 -150t-147 -70l190 -393h-131l-182 377h-213v-377h-115v846h305zM1511 721q0 274 -190 465q-193 194 -469 194q-274 0 -461 -190q-196 -199 -196 -469
q0 -269 194.5 -463.5t462.5 -194.5q197 0 366.5 113t244.5 294q48 117 48 251zM852 1452q305 0 520 -215q104 -104 157.5 -236t53.5 -280q0 -304 -211 -512q-222 -219 -520 -219q-297 0 -513 216t-216 515q0 218 124.5 406t324.5 271q131 54 280 54z" />
    <glyph glyph-name="macron" unicode="&#xaf;" 
d="M254 1118v117h516v-117h-516z" />
    <glyph glyph-name="macron" unicode="&#x2c9;" 
d="M254 1118v117h516v-117h-516z" />
    <glyph glyph-name="degree" unicode="&#xb0;" horiz-adv-x="674" 
d="M551 1176q0 88 -62.5 150.5t-150.5 62.5q-90 0 -151.5 -61.5t-61.5 -151.5q0 -89 62 -151t151 -62t151 62t62 151zM338 1450q113 0 192.5 -80.5t79.5 -193.5q0 -115 -79.5 -194t-194.5 -79q-116 0 -194.5 78.5t-78.5 194.5q0 115 80 194.5t195 79.5z" />
    <glyph glyph-name="plusminus" unicode="&#xb1;" horiz-adv-x="1706" 
d="M1452 141v-82h-1198v82h1198zM893 1161v-354h559v-80h-559v-352h-80v352h-559v80h559v354h80z" />
    <glyph glyph-name="twosuperior" unicode="&#xb2;" horiz-adv-x="778" 
d="M668 645v-70h-621l209 207l60 60q262 259 262 370q0 85 -66 134q-59 45 -147 45q-98 0 -154.5 -54.5t-56.5 -152.5h-86v8q0 132 88 204q82 66 217 66q124 0 206 -58q93 -66 93 -185q0 -153 -221 -357l-13 -12l-213 -205h443z" />
    <glyph glyph-name="threesuperior" unicode="&#xb3;" horiz-adv-x="778" 
d="M160 797q12 -174 211 -174q95 0 152 45q63 49 63 141q0 93 -63 143q-58 45 -154 45h-19q-12 -1 -18 -1v75q7 0 21.5 -1t21.5 -1q196 0 196 160q0 79 -57 123q-52 41 -133 41q-163 0 -182 -141l-95 -1q12 104 94 161q73 50 183 50q115 0 193 -55q88 -61 88 -172
q0 -156 -168 -203q184 -59 184 -223q0 -126 -93 -195q-83 -61 -214 -61q-286 0 -305 244h94z" />
    <glyph glyph-name="acute" unicode="&#xb4;" 
d="M379 1030l213 350h164l-283 -350h-94z" />
    <glyph glyph-name="mu" unicode="&#xb5;" horiz-adv-x="1094" 
d="M326 1063l-123 -590q-17 -82 -17 -141q0 -258 234 -258q263 0 356 422l125 567h121l-166 -786q-1 -7 -5 -24q-20 -93 -20 -112q0 -63 68 -63q17 0 39 2l-18 -96q-3 -1 -8 -2q-49 -11 -68 -11q-133 0 -133 127q0 18 4 45q-89 -172 -312 -172q-206 0 -274 172l-119 -567
h-121l316 1487h121z" />
    <glyph glyph-name="mu" unicode="&#x3bc;" horiz-adv-x="1094" 
d="M326 1063l-123 -590q-17 -82 -17 -141q0 -258 234 -258q263 0 356 422l125 567h121l-166 -786q-1 -7 -5 -24q-20 -93 -20 -112q0 -63 68 -63q17 0 39 2l-18 -96q-3 -1 -8 -2q-49 -11 -68 -11q-133 0 -133 127q0 18 4 45q-89 -172 -312 -172q-206 0 -274 172l-119 -567
h-121l316 1487h121z" />
    <glyph glyph-name="paragraph" unicode="&#xb6;" 
d="M932 1415h-129v-1415h-70v1415h-192v-1415h-70v782q-165 8 -268 94q-113 94 -113 254q0 166 117 261q109 88 278 88h447v-64z" />
    <glyph glyph-name="ch270" unicode="&#xb7;" horiz-adv-x="590" 
d="M193 719q0 43 29.5 72.5t72.5 29.5t72.5 -29.5t29.5 -72.5t-29.5 -73t-72.5 -30t-72.5 30t-29.5 73z" />
    <glyph glyph-name="ch270" unicode="&#x2219;" horiz-adv-x="590" 
d="M193 719q0 43 29.5 72.5t72.5 29.5t72.5 -29.5t29.5 -72.5t-29.5 -73t-72.5 -30t-72.5 30t-29.5 73z" />
    <glyph glyph-name="cedilla" unicode="&#xb8;" 
d="M301 -379v70q162 -33 225 -33q125 0 125 88q0 90 -141 90q-7 0 -20.5 -1t-20.5 -1v166h61v-100h15q213 0 213 -152q0 -164 -215 -164q-98 0 -242 37z" />
    <glyph glyph-name="onesuperior" unicode="&#xb9;" horiz-adv-x="778" 
d="M360 575v799h-174l41 72h217v-871h-84z" />
    <glyph glyph-name="ordmasculine" unicode="&#xba;" horiz-adv-x="858" 
d="M428 897q110 0 186 73.5t76 182.5t-76 181.5t-186 72.5q-109 0 -184.5 -72.5t-75.5 -181.5t75.5 -182.5t184.5 -73.5zM426 817q-147 0 -256 101q-102 94 -102 235q0 146 108 242q104 92 250 92q154 0 258 -96q107 -99 107 -238q0 -144 -113 -242q-107 -94 -252 -94z" />
    <glyph glyph-name="guillemotright" unicode="&#xbb;" horiz-adv-x="782" 
d="M127 49l-82 53l215 332l-211 344l86 53l244 -395zM485 49l-84 53l215 332l-208 344l86 53l243 -395z" />
    <glyph glyph-name="onequarter" unicode="&#xbc;" horiz-adv-x="1829" 
d="M1540 272v369l-291 -369h291zM1540 0v207h-416l500 633v-568h94v-65h-94v-207h-84zM401 -39l918 1518h106l-915 -1518h-109zM344 633v745h-168l41 66h207v-811h-80z" />
    <glyph glyph-name="onehalf" unicode="&#xbd;" horiz-adv-x="1829" 
d="M1722 63v-63h-592l199 195q15 14 53 50q254 243 254 351q0 79 -64 125q-57 41 -140 41q-92 0 -145.5 -51.5t-53.5 -143.5h-82v8q0 125 85 191q77 61 206 61q119 0 196 -53q88 -61 88 -174q0 -121 -218 -339l-5 -5l-203 -193h422zM401 -39l918 1518h106l-915 -1518h-109z
M344 633v745h-168l41 66h207v-811h-80z" />
    <glyph glyph-name="threequarters" unicode="&#xbe;" horiz-adv-x="1829" 
d="M1540 272v369l-291 -369h291zM1540 0v207h-416l500 633v-568h94v-65h-94v-207h-84zM401 -39l918 1518h106l-915 -1518h-109zM152 840q12 -162 202 -162q89 0 144 41q61 45 61 131q0 176 -209 176h-35v70q7 0 21.5 -1t21.5 -1q187 0 187 147q0 75 -54 116q-49 38 -126 38
q-158 0 -175 -131h-89q9 98 89 150q71 46 175 46q108 0 182 -50q84 -58 84 -161q0 -148 -160 -190q176 -52 176 -209q0 -118 -90 -183q-80 -57 -203 -57q-270 0 -293 230h91z" />
    <glyph glyph-name="questiondown" unicode="&#xbf;" horiz-adv-x="1053" 
d="M639 1395q0 -43 -29.5 -73t-72.5 -30q-44 0 -72.5 29.5t-28.5 73.5q0 43 29 72.5t72 29.5t72.5 -29.5t29.5 -72.5zM750 365h118v-33q0 -170 -96 -270.5t-266 -100.5q-153 0 -243.5 90.5t-90.5 243.5q0 126 67 212q49 62 177 144q21 14 74 47q198 122 198 230
q0 74 -47.5 116.5t-122.5 42.5q-186 0 -186 -178v-18h-111v24q0 279 311 279q122 0 201 -72q80 -75 80 -196q0 -101 -65 -179q-45 -53 -152 -124q-20 -14 -72 -47q-227 -143 -227 -273q0 -98 58.5 -155.5t156.5 -57.5q238 0 238 268v7z" />
    <glyph glyph-name="Agrave" unicode="&#xc0;" horiz-adv-x="2845" 
d="M2673 -25h-50l-1247 422v17zM2482 -25l-1106 422v17l1159 -439h-53zM2277 -25h-45l-856 422v17zM1989 -25h-35l-578 422v17zM2673 -25l-1297 -432v19l1247 413h50zM1671 -25h-20l-275 422v17zM1137 287h-107l37 12h49zM1251 299h435l40 -12h-466zM1137 287zM1251 299z
M2482 -25h53l-1159 -432v19zM2103 158zM1989 -25l-613 -432v19l578 413h35zM2277 -25l-901 -432v19l856 413h45zM1376 414v-17l-272 -422h-21zM2630 -31h-2513v19h2513v-19zM1176 248l-373 -273h-31l393 285zM1239 313l137 101v-17l-129 -94zM1176 248zM1239 313zM1671 -25
l-295 -432v19l275 413h20zM1141 283l-619 -308h-41l645 318zM1223 340l153 74v-17l-143 -69zM1141 283zM1223 340zM2105 -207h-1460l-27 19h1518zM1116 299l-844 -324h-53l885 334zM1212 354l164 60v-17l-153 -59zM1116 299zM1212 354zM1376 707v-19l-293 436h21zM1681 -348
h-620l-17 12h668zM1210 354l166 60v-17l-153 -55zM1110 309zM1098 319l112 35zM1110 309l-979 -334h-49l1016 344zM1376 -457l-604 432h31l573 -413v-19zM1376 -457l-895 432h41l854 -413v-19zM1376 -457l-1157 432h53l1104 -413v-19zM1376 -457l-1294 432h49l1245 -413v-19
zM1370 406h16v-850l-16 4v846zM2673 1124h-50l-1247 420v19zM2482 1124l-1106 420v19l1159 -439h-53zM2277 1124h-45l-856 420v19zM1989 1124h-35l-578 420v19zM1561 750l-185 -62v19l174 59zM1663 801zM1561 750zM1663 801l960 323h50l-1002 -336zM1671 1124h-20l-275 420
v19zM1726 1432h-696l37 12h619zM1559 760l-183 -72v19l170 63zM1653 811zM1559 760zM1653 811l829 313h53l-870 -325zM2103 1303zM1530 799l-154 -111v19l146 104zM1604 870zM1530 799zM1604 870l350 254h35l-373 -268zM1546 770l-170 -82v19l160 77zM1632 831zM1546 770z
M1632 831l600 293h45l-626 -307zM1376 1563v-19l-272 -420h-21zM2630 1110h-2513v23h2513v-23zM1376 1544l-573 -420h-31l604 439v-19zM1671 1124l-295 -436v19l275 417h20zM1376 1544l-854 -420h-41l895 439v-19zM2105 938h-1460l-27 18h1518zM1376 1544l-1104 -420h-53
l1157 439v-19zM1530 799h-469l-17 12h478zM1653 811zM1530 799zM1653 811h59l-31 -12h-16zM82 1124l1294 439v-19l-1245 -420h-49zM1376 688l-604 436h31l573 -417v-19zM1376 688l-895 436h41l854 -417v-19zM1376 688l-1157 436h53l1104 -417v-19zM1376 688l-1294 436h49
l1245 -417v-19zM1370 1552h16v-850h-16v850zM1104 -25l272 -413v-19l-293 432h21zM961 551q0 200 109.5 310t309.5 110t308 -110t108 -310q0 -197 -109.5 -306.5t-306.5 -109.5t-308 109.5t-111 306.5zM1079 446h-22l12 -34l39 -70l18 -23l29 -24l37 -27l31 -16l28 -10
l-18 18l-23 16l-32 37l-23 25l-39 78l-6 24l-10 27l-10 -12zM1657 758l16 2l-51 63l-25 21l-22 16l-39 17l-18 10l24 -27l19 -18l14 -17l6 -16l16 -25l9 -22l12 -37l14 14zM1067 532q-6 0 -12 -2q-17 -12 -17 -24q0 -33 27 -33t27 31q0 28 -25 28z" />
    <glyph glyph-name="Aacute" unicode="&#xc1;" horiz-adv-x="6042" 
d="M92 1524h1612v-387h-1612v387zM2105 1524h1608v-387h-1608v387zM4119 1524h1607v-387h-1607v387zM92 750v-1164h1612v389h-1206v775h-406zM2105 750v-1164h404v776h805v-776h399v1164h-1608zM4119 750v-388h1206v-387h-1206v-389h1607v1164h-1607z" />
    <glyph glyph-name="Acircumflex" unicode="&#xc2;" horiz-adv-x="2245" 
d="M102 1561l1037 -1983l1018 1983h-76v-48h10l-956 -1841l-963 1841h1909v48h-1979zM391 1368l119 -229h1241l117 229h-1477zM551 1059l121 -230h921l117 230h-1159zM711 756l120 -234h601l118 234h-839zM641 1282h-12q-27 0 -27 -29q0 -26 27 -26h12v-25h-16q-50 0 -50 51
q0 56 50 56h16v-27zM717 1282q-29 0 -29 -29q0 -26 29 -26q24 0 24 26q0 29 -24 29zM717 1309q49 0 49 -49q0 -58 -49 -58v0q-53 0 -53 58q0 49 53 49zM811 1202h-20l6 82q2 25 18 25q19 0 21 -23l4 -49l10 53q3 19 20 19q19 0 19 -23l8 -84h-23l-8 84l-12 -67
q-3 -17 -14 -17q-9 0 -9 12l-16 70zM944 1202h-24v66q0 41 36 41q35 0 35 -37q0 -35 -35 -35h-4v25q17 0 17 10q0 12 -15 12q-10 0 -10 -12v-70zM1040 1309v-72q0 -14 11 -14q18 0 18 14v72h21v-72q0 -35 -39 -35q-33 0 -33 35v72h22zM1112 1309h64v-27h-17v-80h-29v80h-18
v27zM1247 1282q-28 0 -28 -29q0 -26 28 -26q31 0 31 26q0 29 -31 29zM1247 1309q53 0 53 -49q0 -58 -53 -58v0q-53 0 -53 58q0 49 53 49zM1376 1253q23 0 23 -16v-35h-27v35q0 6 -14 6v23q14 0 14 8q0 10 -10 10t-10 -12v-70h-25v66q0 41 35 41q37 0 37 -27v-2
q0 -23 -23 -27zM1454 1309v-107h-24v107h24zM1505 1309v-72q0 -14 15 -14q10 0 10 14v72h26v-72q0 -35 -36 -35q-41 0 -41 35v72h26zM1604 1202h-23l4 82q1 25 23 25q12 0 16 -23l8 -49h4l4 53q2 19 23 19q19 0 20 -23l5 -84h-23l-2 84l-16 -67q-4 -17 -11 -17q-14 0 -14 12
l-12 70zM791 928h12q-6 22 -8 45zM762 893l22 102h23l24 -102h-22l-2 18h-23l-2 -18h-20zM883 911q22 0 22 33t-22 33v0v-66zM864 893v102h17q45 0 45 -51q0 -39 -29 -47q-4 -4 -18 -4h-15zM981 893l-27 102h25l10 -75q0 8 6 30l13 45h20l-24 -102h-23zM1075 928h15l-3 45z
M1051 893l22 102h19l28 -102h-24l-4 18h-19l-2 -18h-20zM1153 893v102h23l18 -53q0 -6 6 -22q-2 22 -2 34v41h21v-102h-21l-22 57q0 8 -7 19q7 -15 7 -33v-43h-23zM1309 897q-2 -4 -9 -4q-45 0 -45 51t41 51h13v-22q-2 4 -9 4q-22 0 -22 -33t22 -33q7 0 9 7v-21zM1356 893
v102h37v-18h-21v-23h21v-16h-21v-20h21v-25h-37zM1456 911q23 0 23 33t-23 33v0v-66zM1438 893v102h16q45 0 45 -51t-49 -51h-12zM885 592v22q12 -8 18 -8q12 0 12 15l-14 14q-16 16 -16 27q0 26 28 26q7 0 17 -4v-16q-8 2 -10 4q-15 0 -15 -10l15 -19q14 -18 14 -22
q0 -37 -29 -37q-8 0 -20 8zM969 586v47l-25 55h23l6 -18q4 -4 6 -19q2 6 2 19l8 18h21l-25 -55v-47h-16zM1024 592v22q8 -8 14 -8q9 0 9 15l-11 14q-14 20 -14 27q0 26 25 26q12 0 22 -4v-16q-10 2 -18 4q-7 0 -7 -10l13 -19q9 -14 12 -22q0 -37 -29 -37q-8 0 -16 8z
M1102 586v84h-15v18h52v-18h-17v-84h-20zM1161 586v102h43v-18h-24v-19h20v-20h-20v-25h24v-20h-43zM1227 586l10 102h25l6 -37q2 -12 2 -30q2 4 6 30l2 37h25l12 -102h-21l-6 47v37l-10 -84h-16l-13 84v-13q-2 -10 -2 -16v-8l-4 -47h-16zM1333 592v22q10 -8 15 -8
q12 0 12 15l-14 14q-13 12 -13 27q0 26 27 26q8 0 14 -4v-16l-12 4q-6 0 -6 -10l10 -19q10 -14 10 -22q0 -37 -24 -37q-9 0 -19 8zM874 434q74 -139 173 -309q22 -31 40 -31q24 0 29 39q15 111 -4 111h-10l-29 -19l62 189v-506l-269 526h8zM1393 434q-105 -204 -168 -309
q-19 -31 -45 -31q-23 0 -27 39q-11 111 8 111h2q17 -8 31 -19l-59 189v-506l268 526h-10zM866 444h537v-10h-537v10z" />
    <glyph glyph-name="Atilde" unicode="&#xc3;" horiz-adv-x="2361" 
d="M111 1524q284 -523 684 -1162q94 -100 174 -100q91 0 108 131q25 184 25 273q0 143 -47 143h-11q-9 0 -22 -8q-91 -57 -111 -60l244 709v-1894l-1077 1968h33zM2206 1524q-293 -523 -693 -1162q-86 -100 -170 -100q-92 0 -112 131q-25 160 -25 264q0 152 54 152h8
q6 0 127 -68l-240 709v-1894l1083 1968h-32zM78 1554h2160v-36h-2160v36z" />
    <glyph glyph-name="Adieresis" unicode="&#xc4;" horiz-adv-x="1223" 
d="M356 610h510l-250 637zM-18 0l643 1522l616 -1522h-145l-187 496h-598l-194 -496h-135zM690 1766q0 40 29 69t69 29t68 -29t28 -69q0 -96 -96 -96q-42 0 -70 27t-28 69zM340 1766q0 40 28 69t68 29t69 -29t29 -69q0 -42 -28 -69t-70 -27q-96 0 -96 96z" />
    <glyph glyph-name="Aring" unicode="&#xc5;" horiz-adv-x="1223" 
d="M492 1737q0 -56 38.5 -94.5t94.5 -38.5t94.5 38.5t38.5 94.5t-38.5 94.5t-94.5 38.5t-94.5 -38.5t-38.5 -94.5zM389 1737q0 101 67.5 168t168.5 67q100 0 167.5 -67.5t67.5 -167.5t-67.5 -168t-167.5 -68t-168 68t-68 168zM356 610h510l-250 633zM-18 0l624 1460h39
l596 -1460h-145l-187 496h-598l-194 -496h-135z" />
    <glyph glyph-name="AE" unicode="&#xc6;" horiz-adv-x="1688" 
d="M348 610h457l-217 662zM135 0h-127l529 1464h618l41 -125h-506l158 -458h526l43 -125h-526l215 -631h532l41 -125h-665l-170 496h-533z" />
    <glyph glyph-name="Ccedilla" unicode="&#xc7;" horiz-adv-x="1464" 
d="M1358 1196q-213 184 -463 184q-287 0 -463 -180.5t-176 -468.5q0 -290 176 -467q179 -180 445 -180q256 0 473 170v-156q-224 -137 -467 -137q-334 0 -552 216t-218 554q0 337 219.5 551.5t550.5 214.5q281 0 477 -154zM649 -379v70q162 -33 225 -33q125 0 125 88
q0 90 -141 90q-7 0 -20.5 -1t-20.5 -1v166h61v-100h15q213 0 213 -152q0 -164 -215 -164q-98 0 -242 37z" />
    <glyph glyph-name="Egrave" unicode="&#xc8;" horiz-adv-x="1051" 
d="M182 0v1464h725v-125h-592v-458h592v-125h-592v-631h592v-125h-725zM674 1608h-94l-283 350h164z" />
    <glyph glyph-name="Eacute" unicode="&#xc9;" horiz-adv-x="1051" 
d="M182 0v1464h725v-125h-592v-458h592v-125h-592v-631h592v-125h-725zM408 1608l213 350h164l-283 -350h-94z" />
    <glyph glyph-name="Ecircumflex" unicode="&#xca;" horiz-adv-x="1051" 
d="M182 0v1464h725v-125h-592v-458h592v-125h-592v-631h592v-125h-725zM254 1608l213 350h146l213 -350h-92l-193 250l-195 -250h-92z" />
    <glyph glyph-name="Edieresis" unicode="&#xcb;" horiz-adv-x="1051" 
d="M182 0v1464h725v-125h-592v-458h592v-125h-592v-631h592v-125h-725zM619 1766q0 40 29 69t69 29t68 -29t28 -69q0 -96 -96 -96q-42 0 -70 27t-28 69zM269 1766q0 40 28 69t68 29t69 -29t29 -69q0 -42 -28 -69t-70 -27q-96 0 -96 96z" />
    <glyph glyph-name="Igrave" unicode="&#xcc;" horiz-adv-x="498" 
d="M182 0v1464h133v-1464h-133zM383 1608h-94l-283 350h164z" />
    <glyph glyph-name="Iacute" unicode="&#xcd;" horiz-adv-x="498" 
d="M182 0v1464h133v-1464h-133zM117 1608l213 350h164l-283 -350h-94z" />
    <glyph glyph-name="Icircumflex" unicode="&#xce;" horiz-adv-x="498" 
d="M182 0v1464h133v-1464h-133zM-37 1608l213 350h146l213 -350h-92l-193 250l-195 -250h-92z" />
    <glyph glyph-name="Idieresis" unicode="&#xcf;" horiz-adv-x="498" 
d="M182 0v1464h133v-1464h-133zM328 1766q0 40 29 69t69 29t68 -29t28 -69q0 -96 -96 -96q-42 0 -70 27t-28 69zM-22 1766q0 40 28 69t68 29t69 -29t29 -69q0 -42 -28 -69t-70 -27q-96 0 -96 96z" />
    <glyph glyph-name="Eth" unicode="&#xd0;" horiz-adv-x="1673" 
d="M1382 1096q-181 280 -512 280q-281 0 -451 -192q-163 -184 -163 -469q0 -271 178 -453q174 -178 436 -178q242 0 396 140q159 144 163 384h-505v115h651v-16q0 -345 -185 -543q-190 -203 -532 -203q-339 0 -544 216q-201 211 -201 552q0 328 202 543q212 225 537 225
q452 0 627 -317zM564 1862h79q21 -129 195 -129q172 0 193 129h81q-23 -240 -274 -240t-274 240z" />
    <glyph glyph-name="Ntilde" unicode="&#xd1;" horiz-adv-x="1526" 
d="M182 0v1526l1037 -1225v1163h124v-1507l-1036 1227v-1184h-125zM1055 1872q-51 -184 -199 -184q-35 0 -65 10l-80 27q-24 8 -58 8q-61 0 -92 -61h-88q45 178 199 178q36 0 59 -8l78 -27q29 -10 61 -10q73 0 97 67h88z" />
    <glyph glyph-name="Ograve" unicode="&#xd2;" horiz-adv-x="1792" 
d="M895 80q268 0 455.5 188.5t187.5 460.5q0 270 -188 461q-185 188 -455 188q-267 0 -454 -189t-187 -460q0 -270 188 -461q185 -188 453 -188zM1679 729q0 -319 -229.5 -543.5t-554.5 -224.5t-553.5 225.5t-228.5 542.5q0 320 229 547q223 221 553 221q331 0 555 -221
q229 -226 229 -547zM1030 1608h-94l-283 350h164z" />
    <glyph glyph-name="Oacute" unicode="&#xd3;" horiz-adv-x="1792" 
d="M895 80q268 0 455.5 188.5t187.5 460.5q0 270 -188 461q-185 188 -455 188q-267 0 -454 -189t-187 -460q0 -270 188 -461q185 -188 453 -188zM1679 729q0 -319 -229.5 -543.5t-554.5 -224.5t-553.5 225.5t-228.5 542.5q0 320 229 547q223 221 553 221q331 0 555 -221
q229 -226 229 -547zM764 1608l213 350h164l-283 -350h-94z" />
    <glyph glyph-name="Ocircumflex" unicode="&#xd4;" horiz-adv-x="1792" 
d="M895 80q268 0 455.5 188.5t187.5 460.5q0 270 -188 461q-185 188 -455 188q-267 0 -454 -189t-187 -460q0 -270 188 -461q185 -188 453 -188zM1679 729q0 -319 -229.5 -543.5t-554.5 -224.5t-553.5 225.5t-228.5 542.5q0 320 229 547q223 221 553 221q331 0 555 -221
q229 -226 229 -547zM610 1608l213 350h146l213 -350h-92l-193 250l-195 -250h-92z" />
    <glyph glyph-name="Otilde" unicode="&#xd5;" horiz-adv-x="1792" 
d="M895 80q268 0 455.5 188.5t187.5 460.5q0 270 -188 461q-185 188 -455 188q-267 0 -454 -189t-187 -460q0 -270 188 -461q185 -188 453 -188zM1679 729q0 -319 -229.5 -543.5t-554.5 -224.5t-553.5 225.5t-228.5 542.5q0 320 229 547q223 221 553 221q331 0 555 -221
q229 -226 229 -547zM1188 1872q-51 -184 -199 -184q-35 0 -65 10l-80 27q-24 8 -58 8q-61 0 -92 -61h-88q45 178 199 178q36 0 59 -8l78 -27q29 -10 61 -10q73 0 97 67h88z" />
    <glyph glyph-name="Odieresis" unicode="&#xd6;" horiz-adv-x="1792" 
d="M895 80q268 0 455.5 188.5t187.5 460.5q0 270 -188 461q-185 188 -455 188q-267 0 -454 -189t-187 -460q0 -270 188 -461q185 -188 453 -188zM1679 729q0 -319 -229.5 -543.5t-554.5 -224.5t-553.5 225.5t-228.5 542.5q0 320 229 547q223 221 553 221q331 0 555 -221
q229 -226 229 -547zM975 1766q0 40 29 69t69 29t68 -29t28 -69q0 -96 -96 -96q-42 0 -70 27t-28 69zM625 1766q0 40 28 69t68 29t69 -29t29 -69q0 -42 -28 -69t-70 -27q-96 0 -96 96z" />
    <glyph glyph-name="multiply" unicode="&#xd7;" horiz-adv-x="1706" 
d="M854 668l487 487l58 -57l-488 -488l488 -487l-58 -57l-487 487l-487 -487l-58 57l488 487l-488 488l58 57z" />
    <glyph glyph-name="Oslash" unicode="&#xd8;" horiz-adv-x="1792" 
d="M489 233q190 -149 406 -149q266 0 454.5 189.5t188.5 457.5q0 231 -154 422zM1319 1221q-183 159 -424 159q-268 0 -453.5 -188.5t-185.5 -460.5q0 -239 166 -434zM219 -45l-65 70l176 180q-217 209 -217 526q0 319 229.5 543.5t552.5 224.5q306 0 514 -186l184 192
l70 -67l-186 -191q202 -219 202 -516q0 -320 -228 -542t-566 -222q-273 0 -488 172z" />
    <glyph glyph-name="Ugrave" unicode="&#xd9;" horiz-adv-x="1417" 
d="M176 1464h131v-956q0 -428 402 -428q399 0 399 428v956h133v-913q0 -590 -532 -590q-533 0 -533 590v913zM842 1608h-94l-283 350h164z" />
    <glyph glyph-name="Uacute" unicode="&#xda;" horiz-adv-x="1417" 
d="M176 1464h131v-956q0 -428 402 -428q399 0 399 428v956h133v-913q0 -590 -532 -590q-533 0 -533 590v913zM576 1608l213 350h164l-283 -350h-94z" />
    <glyph glyph-name="Ucircumflex" unicode="&#xdb;" horiz-adv-x="1417" 
d="M176 1464h131v-956q0 -428 402 -428q399 0 399 428v956h133v-913q0 -590 -532 -590q-533 0 -533 590v913zM422 1608l213 350h146l213 -350h-92l-193 250l-195 -250h-92z" />
    <glyph glyph-name="Udieresis" unicode="&#xdc;" horiz-adv-x="1417" 
d="M176 1464h131v-956q0 -428 402 -428q399 0 399 428v956h133v-913q0 -590 -532 -590q-533 0 -533 590v913zM787 1766q0 40 29 69t69 29t68 -29t28 -69q0 -96 -96 -96q-42 0 -70 27t-28 69zM437 1766q0 40 28 69t68 29t69 -29t29 -69q0 -42 -28 -69t-70 -27q-96 0 -96 96z
" />
    <glyph glyph-name="Yacute" unicode="&#xdd;" horiz-adv-x="498" 
d="M182 0v1464h133v-1464h-133zM148 1766q0 42 30 73t72 31q43 0 72.5 -30.5t29.5 -73.5q0 -42 -30 -72.5t-72 -30.5t-72 30.5t-30 72.5z" />
    <glyph glyph-name="Thorn" unicode="&#xde;" horiz-adv-x="1020" 
d="M70 246l114 61q67 -227 299 -227q142 0 220 84q75 82 75 225q0 126 -83 209q-53 53 -195 129q-181 96 -250 161q-117 109 -117 259q0 161 110 259q105 93 269 93q222 0 324 -186l-103 -62q-66 129 -229 129q-108 0 -172 -63.5t-64 -171.5q0 -154 254 -287l70 -37
q165 -91 229 -168q84 -102 84 -264q0 -198 -115 -313t-313 -115q-291 0 -407 285zM299 -379v70q162 -33 225 -33q125 0 125 88q0 90 -141 90q-7 0 -20.5 -1t-20.5 -1v166h61v-100h15q213 0 213 -152q0 -164 -215 -164q-98 0 -242 37z" />
    <glyph glyph-name="germandbls" unicode="&#xdf;" horiz-adv-x="1059" 
d="M154 0v782h-121v105h121v297q0 180 87 280q92 107 269 107q172 0 267 -110q91 -104 91 -279q0 -234 -217 -318q310 -35 310 -432q0 -209 -107 -338q-115 -139 -319 -139q-58 0 -123 25v131q60 -31 131 -31q149 0 223 106q65 92 65 248q0 367 -325 367q-12 0 -27 -1
l-45 -3v124h24q17 -1 25 -1q258 0 258 270q0 268 -241 268q-145 0 -197 -121q-27 -62 -27 -227v-1110h-122z" />
    <glyph glyph-name="agrave" unicode="&#xe0;" horiz-adv-x="1108" 
d="M221 434q0 -160 68 -253q77 -105 231 -105t233 118q68 102 68 263q0 153 -72 246q-79 104 -227 104q-152 0 -232 -115q-69 -99 -69 -258zM819 0v162q-90 -201 -311 -201q-201 0 -316 141q-108 131 -108 336q0 200 104 335q114 147 308 147q232 0 323 -195v162h123v-887
h-123zM688 1030h-94l-283 350h164z" />
    <glyph glyph-name="aacute" unicode="&#xe1;" horiz-adv-x="1108" 
d="M221 434q0 -160 68 -253q77 -105 231 -105t233 118q68 102 68 263q0 153 -72 246q-79 104 -227 104q-152 0 -232 -115q-69 -99 -69 -258zM819 0v162q-90 -201 -311 -201q-201 0 -316 141q-108 131 -108 336q0 200 104 335q114 147 308 147q232 0 323 -195v162h123v-887
h-123zM422 1030l213 350h164l-283 -350h-94z" />
    <glyph glyph-name="acircumflex" unicode="&#xe2;" horiz-adv-x="1108" 
d="M221 434q0 -160 68 -253q77 -105 231 -105t233 118q68 102 68 263q0 153 -72 246q-79 104 -227 104q-152 0 -232 -115q-69 -99 -69 -258zM819 0v162q-90 -201 -311 -201q-201 0 -316 141q-108 131 -108 336q0 200 104 335q114 147 308 147q232 0 323 -195v162h123v-887
h-123zM268 1030l213 350h146l213 -350h-92l-193 250l-195 -250h-92z" />
    <glyph glyph-name="atilde" unicode="&#xe3;" horiz-adv-x="1108" 
d="M221 434q0 -160 68 -253q77 -105 231 -105t233 118q68 102 68 263q0 153 -72 246q-79 104 -227 104q-152 0 -232 -115q-69 -99 -69 -258zM819 0v162q-90 -201 -311 -201q-201 0 -316 141q-108 131 -108 336q0 200 104 335q114 147 308 147q232 0 323 -195v162h123v-887
h-123zM846 1294q-51 -184 -199 -184q-35 0 -65 10l-80 27q-24 8 -58 8q-61 0 -92 -61h-88q45 178 199 178q36 0 59 -8l78 -27q29 -10 61 -10q73 0 97 67h88z" />
    <glyph glyph-name="adieresis" unicode="&#xe4;" horiz-adv-x="1108" 
d="M221 434q0 -160 68 -253q77 -105 231 -105t233 118q68 102 68 263q0 153 -72 246q-79 104 -227 104q-152 0 -232 -115q-69 -99 -69 -258zM819 0v162q-90 -201 -311 -201q-201 0 -316 141q-108 131 -108 336q0 200 104 335q114 147 308 147q232 0 323 -195v162h123v-887
h-123zM633 1188q0 40 29 69t69 29t68 -29t28 -69q0 -96 -96 -96q-42 0 -70 27t-28 69zM283 1188q0 40 28 69t68 29t69 -29t29 -69q0 -42 -28 -69t-70 -27q-96 0 -96 96z" />
    <glyph glyph-name="aring" unicode="&#xe5;" horiz-adv-x="1108" 
d="M221 434q0 -160 68 -253q77 -105 231 -105t233 118q68 102 68 263q0 153 -72 246q-79 104 -227 104q-152 0 -232 -115q-69 -99 -69 -258zM819 0v162q-90 -201 -311 -201q-201 0 -316 141q-108 131 -108 336q0 200 104 335q114 147 308 147q232 0 323 -195v162h123v-887
h-123zM393 1221q0 -56 38.5 -95t94.5 -39t94.5 39t38.5 95t-38.5 95.5t-94.5 39.5t-94.5 -39.5t-38.5 -95.5zM291 1221q0 100 67.5 167.5t167.5 67.5t168 -67.5t68 -167.5t-68 -168t-168 -68q-99 0 -167 68.5t-68 167.5z" />
    <glyph glyph-name="ae" unicode="&#xe6;" horiz-adv-x="1624" 
d="M1534 438h-705q5 -154 72 -251q78 -113 223 -113q205 0 299 211l117 -62q-136 -264 -414 -264q-243 0 -362 221q-78 -221 -356 -221q-142 0 -235 71q-101 78 -101 216q0 144 112 225q100 72 250 72q174 0 276 -88q3 18 3 65q0 293 -275 293q-153 0 -301 -78l2 131
q150 54 310 54q118 0 205 -39q109 -49 137 -148q101 187 329 187q198 0 310 -134q104 -125 104 -327v-21zM838 543h551q-8 123 -81 190.5t-196 67.5q-114 0 -188 -72t-86 -186zM702 270q0 87 -84 132q-67 36 -163 36q-104 0 -170 -41q-78 -49 -78 -147q0 -176 233 -176
q102 0 176 46q86 53 86 150z" />
    <glyph glyph-name="ccedilla" unicode="&#xe7;" horiz-adv-x="934" 
d="M854 725q-124 86 -276 86q-170 0 -267 -110q-94 -105 -94 -277q0 -158 101.5 -258t259.5 -100q148 0 290 100v-135q-130 -74 -313 -74q-206 0 -334.5 134t-128.5 341q0 218 135 353t353 135q162 0 276 -60zM334 -379v70q162 -33 225 -33q125 0 125 88q0 90 -141 90
q-7 0 -20.5 -1t-20.5 -1v166h61v-100h15q213 0 213 -152q0 -164 -215 -164q-98 0 -242 37z" />
    <glyph glyph-name="egrave" unicode="&#xe8;" horiz-adv-x="1018" 
d="M780 545q-19 256 -276 256q-114 0 -188.5 -70.5t-86.5 -185.5h551zM926 440h-705q5 -157 74 -255q80 -113 229 -113q197 0 295 213l113 -62q-132 -262 -408 -262q-202 0 -322 137q-114 131 -114 336q0 208 110 342q119 144 322 144q193 0 303 -132q103 -124 103 -321v-27
zM643 1030h-94l-283 350h164z" />
    <glyph glyph-name="eacute" unicode="&#xe9;" horiz-adv-x="1018" 
d="M780 545q-19 256 -276 256q-114 0 -188.5 -70.5t-86.5 -185.5h551zM926 440h-705q5 -157 74 -255q80 -113 229 -113q197 0 295 213l113 -62q-132 -262 -408 -262q-202 0 -322 137q-114 131 -114 336q0 208 110 342q119 144 322 144q193 0 303 -132q103 -124 103 -321v-27
zM377 1030l213 350h164l-283 -350h-94z" />
    <glyph glyph-name="ecircumflex" unicode="&#xea;" horiz-adv-x="1018" 
d="M780 545q-19 256 -276 256q-114 0 -188.5 -70.5t-86.5 -185.5h551zM926 440h-705q5 -157 74 -255q80 -113 229 -113q197 0 295 213l113 -62q-132 -262 -408 -262q-202 0 -322 137q-114 131 -114 336q0 208 110 342q119 144 322 144q193 0 303 -132q103 -124 103 -321v-27
zM223 1030l213 350h146l213 -350h-92l-193 250l-195 -250h-92z" />
    <glyph glyph-name="edieresis" unicode="&#xeb;" horiz-adv-x="1018" 
d="M780 545q-19 256 -276 256q-114 0 -188.5 -70.5t-86.5 -185.5h551zM926 440h-705q5 -157 74 -255q80 -113 229 -113q197 0 295 213l113 -62q-132 -262 -408 -262q-202 0 -322 137q-114 131 -114 336q0 208 110 342q119 144 322 144q193 0 303 -132q103 -124 103 -321v-27
zM588 1188q0 40 29 69t69 29t68 -29t28 -69q0 -96 -96 -96q-42 0 -70 27t-28 69zM238 1188q0 40 28 69t68 29t69 -29t29 -69q0 -42 -28 -69t-70 -27q-96 0 -96 96z" />
    <glyph glyph-name="igrave" unicode="&#xec;" horiz-adv-x="471" 
d="M172 0v887h127v-887h-127zM369 1030h-94l-283 350h164z" />
    <glyph glyph-name="iacute" unicode="&#xed;" horiz-adv-x="471" 
d="M172 0v887h127v-887h-127zM103 1030l213 350h164l-283 -350h-94z" />
    <glyph glyph-name="icircumflex" unicode="&#xee;" horiz-adv-x="471" 
d="M172 0v887h127v-887h-127zM-51 1030l213 350h146l213 -350h-92l-193 250l-195 -250h-92z" />
    <glyph glyph-name="idieresis" unicode="&#xef;" horiz-adv-x="471" 
d="M172 0v887h127v-887h-127zM314 1188q0 40 29 69t69 29t68 -29t28 -69q0 -96 -96 -96q-42 0 -70 27t-28 69zM-36 1188q0 40 28 69t68 29t69 -29t29 -69q0 -42 -28 -69t-70 -27q-96 0 -96 96z" />
    <glyph glyph-name="eth" unicode="&#xf0;" horiz-adv-x="1108" 
d="M944 887v-733q0 -317 -41 -404q-93 -196 -381 -196q-353 0 -395 276h154q30 -166 251 -166q237 0 278 185q9 44 9 135v180q-88 -203 -319 -203q-199 0 -310 143q-100 130 -100 336q0 205 104 337q113 143 312 143q103 0 187 -52q88 -54 126 -147v166h125zM520 807
q-150 0 -229 -113q-68 -99 -68 -256q0 -155 64 -250q74 -112 221 -112q153 0 237 113q76 101 76 260q0 157 -71 252q-79 106 -230 106zM281 1284h79q21 -129 195 -129q172 0 193 129h81q-23 -240 -274 -240t-274 240z" />
    <glyph glyph-name="ntilde" unicode="&#xf1;" horiz-adv-x="1067" 
d="M164 0v887h117v-137q108 170 313 170q151 0 235 -83.5t84 -234.5v-602h-125v547q0 262 -227 262q-274 0 -274 -346v-463h-123zM826 1294q-51 -184 -199 -184q-35 0 -65 10l-80 27q-24 8 -58 8q-61 0 -92 -61h-88q45 178 199 178q36 0 59 -8l78 -27q29 -10 61 -10
q73 0 97 67h88z" />
    <glyph glyph-name="ograve" unicode="&#xf2;" horiz-adv-x="1143" 
d="M571 76q150 0 251 108q98 105 98 256q0 152 -99 258.5t-250 106.5t-249.5 -106.5t-98.5 -258.5q0 -151 98 -256q100 -108 250 -108zM567 -39q-193 0 -340 145q-137 135 -137 336q0 199 139.5 338.5t337.5 139.5q202 0 344 -140t142 -338q0 -197 -140 -336
q-146 -145 -346 -145zM704 1030h-94l-283 350h164z" />
    <glyph glyph-name="oacute" unicode="&#xf3;" horiz-adv-x="1143" 
d="M571 76q150 0 251 108q98 105 98 256q0 152 -99 258.5t-250 106.5t-249.5 -106.5t-98.5 -258.5q0 -151 98 -256q100 -108 250 -108zM567 -39q-193 0 -340 145q-137 135 -137 336q0 199 139.5 338.5t337.5 139.5q202 0 344 -140t142 -338q0 -197 -140 -336
q-146 -145 -346 -145zM438 1030l213 350h164l-283 -350h-94z" />
    <glyph glyph-name="ocircumflex" unicode="&#xf4;" horiz-adv-x="1143" 
d="M571 76q150 0 251 108q98 105 98 256q0 152 -99 258.5t-250 106.5t-249.5 -106.5t-98.5 -258.5q0 -151 98 -256q100 -108 250 -108zM567 -39q-193 0 -340 145q-137 135 -137 336q0 199 139.5 338.5t337.5 139.5q202 0 344 -140t142 -338q0 -197 -140 -336
q-146 -145 -346 -145zM284 1030l213 350h146l213 -350h-92l-193 250l-195 -250h-92z" />
    <glyph glyph-name="otilde" unicode="&#xf5;" horiz-adv-x="1143" 
d="M571 76q150 0 251 108q98 105 98 256q0 152 -99 258.5t-250 106.5t-249.5 -106.5t-98.5 -258.5q0 -151 98 -256q100 -108 250 -108zM567 -39q-193 0 -340 145q-137 135 -137 336q0 199 139.5 338.5t337.5 139.5q202 0 344 -140t142 -338q0 -197 -140 -336
q-146 -145 -346 -145zM862 1294q-51 -184 -199 -184q-35 0 -65 10l-80 27q-24 8 -58 8q-61 0 -92 -61h-88q45 178 199 178q36 0 59 -8l78 -27q29 -10 61 -10q73 0 97 67h88z" />
    <glyph glyph-name="odieresis" unicode="&#xf6;" horiz-adv-x="1143" 
d="M571 76q150 0 251 108q98 105 98 256q0 152 -99 258.5t-250 106.5t-249.5 -106.5t-98.5 -258.5q0 -151 98 -256q100 -108 250 -108zM567 -39q-193 0 -340 145q-137 135 -137 336q0 199 139.5 338.5t337.5 139.5q202 0 344 -140t142 -338q0 -197 -140 -336
q-146 -145 -346 -145zM649 1188q0 40 29 69t69 29t68 -29t28 -69q0 -96 -96 -96q-42 0 -70 27t-28 69zM299 1188q0 40 28 69t68 29t69 -29t29 -69q0 -42 -28 -69t-70 -27q-96 0 -96 96z" />
    <glyph glyph-name="divide" unicode="&#xf7;" horiz-adv-x="1706" 
d="M854 365q42 0 70 -29.5t28 -71.5q0 -41 -28.5 -69.5t-69.5 -28.5t-69.5 28.5t-28.5 69.5t28.5 71t69.5 30zM1452 651v-82h-1198v82h1198zM854 1055q42 0 70 -28.5t28 -70.5q0 -41 -28.5 -70.5t-69.5 -29.5t-69.5 29.5t-28.5 70.5t28.5 70t69.5 29z" />
    <glyph glyph-name="oslash" unicode="&#xf8;" horiz-adv-x="1143" 
d="M147 -41l-55 59l111 113q-115 142 -115 301q0 209 139 348.5t348 139.5q164 0 302 -111l110 113l62 -58l-113 -110q117 -145 117 -310q0 -210 -141.5 -346.5t-352.5 -136.5q-161 0 -295 113zM346 160q100 -82 217 -82q157 0 256 104t99 262q0 114 -68 220zM793 723
q-88 82 -211 82q-162 0 -260.5 -104t-98.5 -267q0 -114 70 -213z" />
    <glyph glyph-name="ugrave" unicode="&#xf9;" horiz-adv-x="1079" 
d="M287 887v-443q0 -175 40 -255q57 -113 212 -113q154 0 212 114q42 81 42 254v443h122v-506q0 -420 -374 -420q-377 0 -377 420v506h123zM674 1030h-94l-283 350h164z" />
    <glyph glyph-name="uacute" unicode="&#xfa;" horiz-adv-x="1079" 
d="M287 887v-443q0 -175 40 -255q57 -113 212 -113q154 0 212 114q42 81 42 254v443h122v-506q0 -420 -374 -420q-377 0 -377 420v506h123zM408 1030l213 350h164l-283 -350h-94z" />
    <glyph glyph-name="ucircumflex" unicode="&#xfb;" horiz-adv-x="1079" 
d="M287 887v-443q0 -175 40 -255q57 -113 212 -113q154 0 212 114q42 81 42 254v443h122v-506q0 -420 -374 -420q-377 0 -377 420v506h123zM254 1030l213 350h146l213 -350h-92l-193 250l-195 -250h-92z" />
    <glyph glyph-name="udieresis" unicode="&#xfc;" horiz-adv-x="1079" 
d="M287 887v-443q0 -175 40 -255q57 -113 212 -113q154 0 212 114q42 81 42 254v443h122v-506q0 -420 -374 -420q-377 0 -377 420v506h123zM619 1188q0 40 29 69t69 29t68 -29t28 -69q0 -96 -96 -96q-42 0 -70 27t-28 69zM269 1188q0 40 28 69t68 29t69 -29t29 -69
q0 -42 -28 -69t-70 -27q-96 0 -96 96z" />
    <glyph glyph-name="yacute" unicode="&#xfd;" horiz-adv-x="471" 
d="M172 0v887h127v-887h-127z" />
    <glyph glyph-name="thorn" unicode="&#xfe;" horiz-adv-x="782" 
d="M63 158l117 67q58 -149 219 -149q73 0 119 35q51 39 51 110q0 102 -181 173q-11 5 -30 12q-118 47 -171 91q-81 67 -81 167q0 119 85 191q81 67 202 67q222 0 295 -181l-113 -63q-43 129 -190 129q-61 0 -102 -35q-45 -37 -45 -96q0 -70 75 -115q33 -20 136 -55
q127 -44 179 -94q68 -65 68 -183q0 -132 -98 -204q-87 -64 -223 -64q-237 0 -312 197zM180 -379v70q162 -33 225 -33q125 0 125 88q0 90 -141 90q-7 0 -20.5 -1t-20.5 -1v166h61v-100h15q213 0 213 -152q0 -164 -215 -164q-98 0 -242 37z" />
    <glyph glyph-name="ydieresis" unicode="&#xff;" horiz-adv-x="825" 
d="M43 887h131l254 -694l234 694h131l-459 -1333h-127l155 452zM492 1188q0 40 29 69t69 29t68 -29t28 -69q0 -96 -96 -96q-42 0 -70 27t-28 69zM142 1188q0 40 28 69t68 29t69 -29t29 -69q0 -42 -28 -69t-70 -27q-96 0 -96 96z" />
    <glyph glyph-name="Cacute" unicode="&#x106;" horiz-adv-x="1464" 
d="M1358 1196q-213 184 -463 184q-287 0 -463 -180.5t-176 -468.5q0 -290 176 -467q179 -180 445 -180q256 0 473 170v-156q-224 -137 -467 -137q-334 0 -552 216t-218 554q0 337 219.5 551.5t550.5 214.5q281 0 477 -154zM741 1608l213 350h164l-283 -350h-94z" />
    <glyph glyph-name="cacute" unicode="&#x107;" horiz-adv-x="934" 
d="M854 725q-124 86 -276 86q-170 0 -267 -110q-94 -105 -94 -277q0 -158 101.5 -258t259.5 -100q148 0 290 100v-135q-130 -74 -313 -74q-206 0 -334.5 134t-128.5 341q0 218 135 353t353 135q162 0 276 -60zM428 1030l213 350h164l-283 -350h-94z" />
    <glyph glyph-name="Ccaron" unicode="&#x10c;" horiz-adv-x="1464" 
d="M1358 1196q-213 184 -463 184q-287 0 -463 -180.5t-176 -468.5q0 -290 176 -467q179 -180 445 -180q256 0 473 170v-156q-224 -137 -467 -137q-334 0 -552 216t-218 554q0 337 219.5 551.5t550.5 214.5q281 0 477 -154zM1159 1958l-213 -350h-146l-213 350h92l195 -250
l193 250h92z" />
    <glyph glyph-name="ccaron" unicode="&#x10d;" horiz-adv-x="934" 
d="M854 725q-124 86 -276 86q-170 0 -267 -110q-94 -105 -94 -277q0 -158 101.5 -258t259.5 -100q148 0 290 100v-135q-130 -74 -313 -74q-206 0 -334.5 134t-128.5 341q0 218 135 353t353 135q162 0 276 -60zM846 1380l-213 -350h-146l-213 350h92l195 -250l193 250h92z
" />
    <glyph glyph-name="dcroat" unicode="&#x111;" horiz-adv-x="1116" 
d="M225 434q0 -160 68 -253q77 -105 231 -105q153 0 232 119q67 101 67 262q0 153 -71 246q-78 104 -226 104q-151 0 -231 -115q-70 -100 -70 -258zM821 0v162q-88 -201 -309 -201q-201 0 -316 141q-108 131 -108 336q0 199 104 334q115 148 308 148q230 0 321 -195v436
h-360v101h360v288h125v-288h170v-101h-170v-1161h-125z" />
    <glyph glyph-name="Gbreve" unicode="&#x11e;" horiz-adv-x="1673" 
d="M1382 1096q-181 280 -512 280q-281 0 -451 -192q-163 -184 -163 -469q0 -271 178 -453q174 -178 436 -178q242 0 396 140q159 144 163 384h-505v115h651v-16q0 -345 -185 -543q-190 -203 -532 -203q-339 0 -544 216q-201 211 -201 552q0 328 202 543q212 225 537 225
q452 0 627 -317zM564 1862h79q21 -129 195 -129q172 0 193 129h81q-23 -240 -274 -240t-274 240z" />
    <glyph glyph-name="gbreve" unicode="&#x11f;" horiz-adv-x="1108" 
d="M944 887v-733q0 -317 -41 -404q-93 -196 -381 -196q-353 0 -395 276h154q30 -166 251 -166q237 0 278 185q9 44 9 135v180q-88 -203 -319 -203q-199 0 -310 143q-100 130 -100 336q0 205 104 337q113 143 312 143q103 0 187 -52q88 -54 126 -147v166h125zM520 807
q-150 0 -229 -113q-68 -99 -68 -256q0 -155 64 -250q74 -112 221 -112q153 0 237 113q76 101 76 260q0 157 -71 252q-79 106 -230 106zM281 1284h79q21 -129 195 -129q172 0 193 129h81q-23 -240 -274 -240t-274 240z" />
    <glyph glyph-name="Idotaccent" unicode="&#x130;" horiz-adv-x="498" 
d="M182 0v1464h133v-1464h-133zM148 1766q0 42 30 73t72 31q43 0 72.5 -30.5t29.5 -73.5q0 -42 -30 -72.5t-72 -30.5t-72 30.5t-30 72.5z" />
    <glyph glyph-name="dotlessi" unicode="&#x131;" horiz-adv-x="471" 
d="M172 0v887h127v-887h-127z" />
    <glyph glyph-name="Lslash" unicode="&#x141;" horiz-adv-x="856" 
d="M193 0v672l-195 -135l-66 79l261 185v663h133v-592l237 166l64 -86l-301 -209v-618h501v-125h-634z" />
    <glyph glyph-name="lslash" unicode="&#x142;" horiz-adv-x="500" 
d="M313 831l152 107l55 -82l-207 -147v-709h-127v635l-149 -109l-57 82l206 148v794h127v-719z" />
    <glyph glyph-name="OE" unicode="&#x152;" horiz-adv-x="2320" 
d="M2181 1464v-125h-575v-458h575v-125h-575v-631h575v-125h-698v311q-202 -346 -617 -346q-209 0 -379 103q-374 227 -374 665q0 321 219 541q224 225 547 225q399 0 604 -338v303h698zM242 731q0 -265 184 -459q176 -186 436 -186q262 0 436 184q181 191 181 461
q0 280 -172 459q-181 188 -445 188q-258 0 -436 -186q-184 -192 -184 -461z" />
    <glyph glyph-name="oe" unicode="&#x153;" horiz-adv-x="1841" 
d="M573 76q150 0 251 108q98 105 98 256q0 152 -99 258.5t-250 106.5t-249.5 -106.5t-98.5 -258.5q0 -151 98 -256q100 -108 250 -108zM1053 545h551q-8 123 -81 191.5t-196 68.5q-113 0 -189 -73.5t-85 -186.5zM1749 442h-705q0 -150 70 -251q80 -115 223 -115
q207 0 301 213l117 -64q-137 -264 -403 -264q-128 0 -229 59q-110 64 -148 179q-120 -238 -406 -238q-200 0 -338.5 139.5t-138.5 341.5q0 199 140.5 339.5t330.5 140.5q291 0 412 -234q43 113 144 175q95 59 220 59q196 0 307 -134q103 -124 103 -325v-21z" />
    <glyph glyph-name="Scedilla" unicode="&#x15e;" horiz-adv-x="1020" 
d="M70 246l114 61q67 -227 299 -227q142 0 220 84q75 82 75 225q0 126 -83 209q-53 53 -195 129q-181 96 -250 161q-117 109 -117 259q0 161 110 259q105 93 269 93q222 0 324 -186l-103 -62q-66 129 -229 129q-108 0 -172 -63.5t-64 -171.5q0 -154 254 -287l70 -37
q165 -91 229 -168q84 -102 84 -264q0 -198 -115 -313t-313 -115q-291 0 -407 285zM299 -379v70q162 -33 225 -33q125 0 125 88q0 90 -141 90q-7 0 -20.5 -1t-20.5 -1v166h61v-100h15q213 0 213 -152q0 -164 -215 -164q-98 0 -242 37z" />
    <glyph glyph-name="scedilla" unicode="&#x15f;" horiz-adv-x="782" 
d="M63 158l117 67q58 -149 219 -149q73 0 119 35q51 39 51 110q0 102 -181 173q-11 5 -30 12q-118 47 -171 91q-81 67 -81 167q0 119 85 191q81 67 202 67q222 0 295 -181l-113 -63q-43 129 -190 129q-61 0 -102 -35q-45 -37 -45 -96q0 -70 75 -115q33 -20 136 -55
q127 -44 179 -94q68 -65 68 -183q0 -132 -98 -204q-87 -64 -223 -64q-237 0 -312 197zM180 -379v70q162 -33 225 -33q125 0 125 88q0 90 -141 90q-7 0 -20.5 -1t-20.5 -1v166h61v-100h15q213 0 213 -152q0 -164 -215 -164q-98 0 -242 37z" />
    <glyph glyph-name="Scaron" unicode="&#x160;" horiz-adv-x="1020" 
d="M70 246l114 61q67 -227 299 -227q142 0 220 84q75 82 75 225q0 126 -83 209q-53 53 -195 129q-181 96 -250 161q-117 109 -117 259q0 161 110 259q105 93 269 93q222 0 324 -186l-103 -62q-66 129 -229 129q-108 0 -172 -63.5t-64 -171.5q0 -154 254 -287l70 -37
q165 -91 229 -168q84 -102 84 -264q0 -198 -115 -313t-313 -115q-291 0 -407 285zM795 1958l-213 -350h-146l-213 350h92l195 -250l193 250h92z" />
    <glyph glyph-name="scaron" unicode="&#x161;" horiz-adv-x="782" 
d="M63 158l117 67q58 -149 219 -149q73 0 119 35q51 39 51 110q0 102 -181 173q-11 5 -30 12q-118 47 -171 91q-81 67 -81 167q0 119 85 191q81 67 202 67q222 0 295 -181l-113 -63q-43 129 -190 129q-61 0 -102 -35q-45 -37 -45 -96q0 -70 75 -115q33 -20 136 -55
q127 -44 179 -94q68 -65 68 -183q0 -132 -98 -204q-87 -64 -223 -64q-237 0 -312 197zM676 1380l-213 -350h-146l-213 350h92l195 -250l193 250h92z" />
    <glyph glyph-name="Ydieresis" unicode="&#x178;" horiz-adv-x="1118" 
d="M496 0v674l-486 790h160l393 -671l395 671h152l-481 -790v-674h-133zM637 1766q0 40 29 69t69 29t68 -29t28 -69q0 -96 -96 -96q-42 0 -70 27t-28 69zM287 1766q0 40 28 69t68 29t69 -29t29 -69q0 -42 -28 -69t-70 -27q-96 0 -96 96z" />
    <glyph glyph-name="Zcaron" unicode="&#x17d;" horiz-adv-x="1147" 
d="M25 0l870 1343h-743v121h970l-866 -1341h778v-123h-1009zM858 1958l-213 -350h-146l-213 350h92l195 -250l193 250h92z" />
    <glyph glyph-name="zcaron" unicode="&#x17e;" horiz-adv-x="780" 
d="M23 0l495 776h-461v111h674l-491 -776h505v-111h-722zM676 1380l-213 -350h-146l-213 350h92l195 -250l193 250h92z" />
    <glyph glyph-name="florin" unicode="&#x192;" horiz-adv-x="1180" 
d="M658 825l-88 -800q-24 -221 -60 -309q-69 -168 -232 -167q-37 0 -92 15l31 118q22 -12 61 -12q98 0 137 171q5 22 30 245l82 739h-163l10 95h164l20 182q20 178 68 260q69 117 223 117q71 0 127 -29l-21 -107q-63 23 -106 23q-94 0 -131 -95q-17 -45 -31 -177l-18 -174
h194l-6 -95h-199z" />
    <glyph glyph-name="circumflex" unicode="&#x2c6;" 
d="M225 1030l213 350h146l213 -350h-92l-193 250l-195 -250h-92z" />
    <glyph glyph-name="caron" unicode="&#x2c7;" 
d="M797 1380l-213 -350h-146l-213 350h92l195 -250l193 250h92z" />
    <glyph glyph-name="breve" unicode="&#x2d8;" 
d="M238 1284h79q21 -129 195 -129q172 0 193 129h81q-23 -240 -274 -240t-274 240z" />
    <glyph glyph-name="dotaccent" unicode="&#x2d9;" 
d="M410 1188q0 42 30 73t72 31q43 0 72.5 -30.5t29.5 -73.5q0 -42 -30 -72.5t-72 -30.5t-72 30.5t-30 72.5z" />
    <glyph glyph-name="ring" unicode="&#x2da;" 
d="M371 1260q0 -61 40 -102.5t101 -41.5q60 0 101.5 42t41.5 102t-41.5 100.5t-101.5 40.5q-61 0 -101 -40t-40 -101zM264 1260q0 105 71.5 176t176.5 71t176.5 -71t71.5 -176t-71.5 -176.5t-176.5 -71.5t-176.5 71.5t-71.5 176.5z" />
    <glyph glyph-name="ogonek" unicode="&#x2db;" 
d="M573 0q-143 -127 -143 -236q0 -86 100 -86h84v-112h-79q-222 0 -222 164q0 120 189 270h71z" />
    <glyph glyph-name="tilde" unicode="&#x2dc;" 
d="M803 1294q-51 -184 -199 -184q-35 0 -65 10l-80 27q-24 8 -58 8q-61 0 -92 -61h-88q45 178 199 178q36 0 59 -8l78 -27q29 -10 61 -10q73 0 97 67h88z" />
    <glyph glyph-name="hungarumlaut" unicode="&#x2dd;" 
d="M580 1030l168 350h155l-239 -350h-84zM322 1030l147 350h158l-221 -350h-84z" />
    <glyph glyph-name="Delta" unicode="&#x394;" horiz-adv-x="1335" 
d="M1155 121l-487 1233l-490 -1233h977zM754 1473l592 -1473h-1358l594 1473h172z" />
    <glyph glyph-name="Delta" unicode="&#x2206;" horiz-adv-x="1335" 
d="M1155 121l-487 1233l-490 -1233h977zM754 1473l592 -1473h-1358l594 1473h172z" />
    <glyph glyph-name="Omega" unicode="&#x3a9;" horiz-adv-x="1585" 
d="M1452 121v-121h-573v102q438 273 438 684q0 253 -133 423q-145 184 -391 184t-392 -184q-133 -170 -133 -423q0 -411 439 -684v-102h-572v121h354q-360 260 -360 665q0 305 177 511q187 216 487 216t486 -217q177 -205 177 -510q0 -405 -360 -665h356z" />
    <glyph glyph-name="Omega" unicode="&#x2126;" horiz-adv-x="1585" 
d="M1452 121v-121h-573v102q438 273 438 684q0 253 -133 423q-145 184 -391 184t-392 -184q-133 -170 -133 -423q0 -411 439 -684v-102h-572v121h354q-360 260 -360 665q0 305 177 511q187 216 487 216t486 -217q177 -205 177 -510q0 -405 -360 -665h356z" />
    <glyph glyph-name="pi" unicode="&#x3c0;" horiz-adv-x="1155" 
d="M1102 958h-182l-119 -565q-29 -138 -29 -188q0 -107 109 -107q52 0 92 10l-25 -108q-52 -16 -96 -16q-93 0 -146 54.5t-53 147.5q0 83 56 351l88 421h-381l-203 -958h-121l201 958h-39q-106 0 -127 -133h-121q26 138 88 188t203 50h829z" />
    <glyph glyph-name="endash" unicode="&#x2013;" 
d="M0 481h1024v-80h-1024v80z" />
    <glyph glyph-name="emdash" unicode="&#x2014;" horiz-adv-x="2048" 
d="M0 401v80h2048v-80h-2048z" />
    <glyph glyph-name="quoteleft" unicode="&#x2018;" horiz-adv-x="590" 
d="M467 1466l-195 -540l-149 67l262 504z" />
    <glyph glyph-name="quoteright" unicode="&#x2019;" horiz-adv-x="590" 
d="M123 958l194 539l150 -65l-262 -506z" />
    <glyph glyph-name="quotesinglbase" unicode="&#x201a;" horiz-adv-x="590" 
d="M324 254l145 -61l-264 -515l-84 39z" />
    <glyph glyph-name="quotedblleft" unicode="&#x201c;" horiz-adv-x="877" 
d="M772 1466l-194 -540l-150 67l262 504zM449 1466l-195 -540l-148 67l261 504z" />
    <glyph glyph-name="quotedblright" unicode="&#x201d;" horiz-adv-x="877" 
d="M428 958l195 539l149 -65l-262 -506zM106 958l193 539l150 -65l-263 -506z" />
    <glyph glyph-name="quotedblbase" unicode="&#x201e;" horiz-adv-x="877" 
d="M428 -287l195 541l149 -68l-262 -505zM106 -287l193 541l150 -68l-263 -505z" />
    <glyph glyph-name="dagger" unicode="&#x2020;" horiz-adv-x="1042" 
d="M461 -446v1220h-361v115h361v575h123v-575h360v-115h-360v-1220h-123z" />
    <glyph glyph-name="daggerdbl" unicode="&#x2021;" horiz-adv-x="1042" 
d="M459 -446v485h-359v113h359v720h-359v113h359v479h123v-479h362v-113h-362v-720h362v-113h-362v-485h-123z" />
    <glyph glyph-name="bullet" unicode="&#x2022;" horiz-adv-x="1208" 
d="M307 762q0 124 86.5 209.5t210.5 85.5q123 0 209 -86t86 -209t-87 -210t-210 -87q-124 0 -209.5 86.5t-85.5 210.5z" />
    <glyph glyph-name="ellipsis" unicode="&#x2026;" horiz-adv-x="2048" 
d="M240 84q0 43 29.5 72.5t72.5 29.5t72.5 -29.5t29.5 -72.5t-29.5 -72.5t-72.5 -29.5t-72.5 29.5t-29.5 72.5zM922 84q0 43 29.5 72.5t72.5 29.5t72.5 -29.5t29.5 -72.5t-29.5 -72.5t-72.5 -29.5t-72.5 29.5t-29.5 72.5zM1606 84q0 43 29.5 72.5t72.5 29.5t72.5 -29.5
t29.5 -72.5t-29.5 -72.5t-72.5 -29.5t-72.5 29.5t-29.5 72.5z" />
    <glyph glyph-name="perthousand" unicode="&#x2030;" horiz-adv-x="2204" 
d="M1673 336q0 -283 176 -283q174 0 174 283q0 280 -174 280q-176 0 -176 -280zM2142 334q0 -161 -65 -258q-76 -115 -228 -115t-229 115q-66 98 -66 258q0 161 66 259q77 116 229 116t228 -116q65 -98 65 -259zM965 336q0 -283 174 -283q176 0 176 283q0 280 -176 280
q-174 0 -174 -280zM1434 334q0 -160 -66 -258q-77 -115 -229 -115t-228 115q-65 97 -65 258t65 259q76 116 228 116t229 -116q66 -98 66 -259zM180 1106q0 -283 174 -283q176 0 176 283q0 280 -176 280q-174 0 -174 -280zM649 1104q0 -161 -66 -259q-77 -116 -229 -116
t-228 116q-65 99 -65 259t65 259q76 116 228 116t229 -116q66 -98 66 -259zM270 -39l840 1518h109l-842 -1518h-107z" />
    <glyph glyph-name="guilsinglleft" unicode="&#x2039;" horiz-adv-x="422" 
d="M295 51l-252 385l244 395l86 -51l-209 -346l215 -332z" />
    <glyph glyph-name="guilsinglright" unicode="&#x203a;" horiz-adv-x="422" 
d="M125 51l-82 51l215 332l-211 346l88 51l244 -395z" />
    <glyph glyph-name="fraction" unicode="&#x2044;" horiz-adv-x="342" 
d="M-342 -39l917 1518h107l-915 -1518h-109z" />
    <glyph glyph-name="franc" unicode="&#x20a3;" horiz-adv-x="1671" 
d="M182 0v1464h725v-125h-592v-458h570v-125h-570v-756h-133zM1313 709q125 211 286 211q50 0 105 -19l-40 -116q-47 14 -83 14q-127 0 -203 -123q-65 -105 -65 -240v-436h-123v887h123v-178z" />
    <glyph glyph-name="trademark" unicode="&#x2122;" horiz-adv-x="1706" 
d="M926 1454l174 -440l162 440h102v-530h-59v479l-181 -479h-49l-190 479v-479h-60v530h101zM694 1454v-51h-174v-479h-67v479h-179v51h420z" />
    <glyph glyph-name="partialdiff" unicode="&#x2202;" 
d="M750 578q22 138 22 305q0 354 -154 354q-39 0 -99.5 -73.5t-108.5 -73.5q-68 0 -68 65q0 69 74 110q61 35 135 35q188 0 279 -192q69 -145 69 -356q0 -266 -96 -489q-126 -290 -359 -290q-152 0 -236 120q-73 106 -73 265q0 164 99 288q106 132 266 132q191 0 250 -200z
M713 459q0 256 -185 256q-141 0 -212 -167q-52 -125 -52 -288q0 -242 185 -242q136 0 208 162q56 125 56 279z" />
    <glyph glyph-name="product" unicode="&#x220f;" horiz-adv-x="1491" 
d="M164 1473h1163v-1866h-135v1743h-893v-1743h-135v1866z" />
    <glyph glyph-name="summation" unicode="&#x2211;" horiz-adv-x="1290" 
d="M45 1473h1208v-123h-1038l721 -787l-760 -835h1077v-121h-1243v127l752 829l-717 787v123z" />
    <glyph glyph-name="minus" unicode="&#x2212;" horiz-adv-x="1706" 
d="M1452 651v-82h-1198v82h1198z" />
    <glyph glyph-name="radical" unicode="&#x221a;" horiz-adv-x="1264" 
d="M1264 1626v-61h-129l-596 -1606h-31l-330 907l-110 -39l-15 50l230 79l278 -759l531 1429h172z" />
    <glyph glyph-name="infinity" unicode="&#x221e;" horiz-adv-x="1706" 
d="M889 557q107 -205 287 -205q113 0 181 84q64 78 64 193q0 109 -56 187q-62 87 -167 87q-107 0 -196 -126q-49 -69 -113 -220zM819 670q-104 204 -287 204q-113 0 -181 -83q-64 -77 -64 -193q0 -108 56 -186q62 -86 167 -86q109 0 197 125q48 68 112 219zM836 713
q130 274 323 274q142 0 229 -118q80 -107 80 -253q0 -150 -68 -251q-79 -117 -222 -117q-176 0 -308 262q-137 -268 -321 -268q-141 0 -230 117q-81 108 -81 253q0 150 68 252q79 117 222 117q190 0 308 -268z" />
    <glyph glyph-name="integral" unicode="&#x222b;" horiz-adv-x="948" 
d="M401 578q0 366 41 569q81 399 314 399q61 0 102 -31q45 -35 45 -94q0 -98 -102 -98q-62 0 -101.5 64.5t-33.5 64.5q-95 0 -116 -391q-3 -51 -3 -455q0 -375 -39 -574q-80 -403 -315 -403q-58 0 -100 30q-48 34 -48 89q0 107 105 107q63 0 96 -56q1 -2 12 -45
q8 -30 25 -30q93 0 115 394q3 64 3 460z" />
    <glyph glyph-name="approxequal" unicode="&#x2248;" horiz-adv-x="1706" 
d="M1530 485q-211 -147 -387 -147q-100 0 -292 70.5t-286 70.5q-157 0 -387 -160v93q209 145 387 145q100 0 291.5 -69.5t286.5 -69.5q157 0 387 160v-93zM1530 809q-209 -145 -387 -145q-100 0 -291.5 69.5t-286.5 69.5q-157 0 -387 -160v92q209 148 387 148q100 0 292 -71
t286 -71q151 0 387 162v-94z" />
    <glyph glyph-name="approxequal" unicode="&#x22f2;" horiz-adv-x="1706" 
d="M1530 485q-211 -147 -387 -147q-100 0 -292 70.5t-286 70.5q-157 0 -387 -160v93q209 145 387 145q100 0 291.5 -69.5t286.5 -69.5q157 0 387 160v-93zM1530 809q-209 -145 -387 -145q-100 0 -291.5 69.5t-286.5 69.5q-157 0 -387 -160v92q209 148 387 148q100 0 292 -71
t286 -71q151 0 387 162v-94z" />
    <glyph glyph-name="notequal" unicode="&#x2260;" horiz-adv-x="1706" 
d="M1280 1108l-217 -277h389v-79h-440l-219 -283h659v-82h-711l-254 -324l-61 48l215 276h-387v82h436l221 283h-657v79h709l254 326z" />
    <glyph glyph-name="lessequal" unicode="&#x2264;" horiz-adv-x="1706" 
d="M1442 129v-80h-1178v80h1178zM1442 1083l-1043 -350l1043 -352v-88l-1178 405v70l1178 403v-88z" />
    <glyph glyph-name="greaterequal" unicode="&#x2265;" horiz-adv-x="1706" 
d="M1442 129v-80h-1178v80h1178zM1442 768v-70l-1178 -405v88l1043 352l-1043 350v88z" />
    <glyph glyph-name="lozenge" unicode="&#x25ca;" horiz-adv-x="1012" 
d="M506 1409l-385 -817l385 -825l385 825zM506 1653l500 -1061l-500 -1069l-500 1069z" />
    <glyph glyph-name="apple" unicode="&#xf000;" horiz-adv-x="1618" 
d="M836 1216q-2 12 -2 37q0 132 101 237q96 99 230 124q2 -20 2 -62q0 -117 -94 -226q-97 -112 -213 -112h-8q-3 0 -8 1t-8 1zM1505 403q-90 -196 -152 -279q-118 -159 -257 -159q-46 0 -130 33t-124 33q-44 0 -130 -33t-128 -33q-129 0 -258 176q-213 291 -213 596
q0 211 117 348q124 146 331 146q57 0 149.5 -34t129.5 -34q32 0 124.5 35t149.5 35q216 0 359 -164q-201 -128 -201 -328q0 -233 233 -338z" />
    <glyph glyph-name="fi" unicode="&#xf001;" horiz-adv-x="967" 
d="M637 1233q0 39 27.5 66.5t66.5 27.5t66.5 -27.5t27.5 -66.5q0 -41 -26.5 -67.5t-67.5 -26.5q-40 0 -67 27t-27 67zM668 0v887h127v-887h-127zM193 0v782h-166v105h166v256q0 214 23 284q47 142 210 142q64 0 119 -21l-23 -108q-48 24 -88 24q-81 0 -106 -88
q-13 -45 -13 -153v-336h195v-105h-195v-782h-122z" />
    <glyph glyph-name="fl" unicode="&#xf002;" horiz-adv-x="977" 
d="M678 0v1550h125v-1550h-125zM193 0v782h-166v105h166v256q0 214 23 284q47 142 210 142q64 0 119 -21l-23 -108q-48 24 -88 24q-81 0 -106 -88q-13 -45 -13 -153v-336h195v-105h-195v-782h-122z" />
    <glyph glyph-name="periodcentered" horiz-adv-x="590" 
d="M193 719q0 43 29.5 72.5t72.5 29.5t72.5 -29.5t29.5 -72.5t-29.5 -73t-72.5 -30t-72.5 30t-29.5 73z" />
    <glyph glyph-name="glyph256" horiz-adv-x="590" 
 />
    <glyph glyph-name="glyph257" horiz-adv-x="590" 
 />
    </font>
</defs>
</svg>
