<svg xmlns="http://www.w3.org/2000/svg" width="36" height="36" viewBox="0 0 36 36">
  <metadata><?xpacket begin="﻿" id="W5M0MpCehiHzreSzNTczkc9d"?>
<x:xmpmeta xmlns:x="adobe:ns:meta/" x:xmptk="Adobe XMP Core 5.6-c138 79.159824, 2016/09/14-01:09:01        ">
   <rdf:RDF xmlns:rdf="http://www.w3.org/1999/02/22-rdf-syntax-ns#">
      <rdf:Description rdf:about=""/>
   </rdf:RDF>
</x:xmpmeta><?xpacket end="w"?></metadata>
<defs>
    <style>
      .cls-1 {
        fill: #fff;
        fill-rule: evenodd;
      }
    </style>
  </defs>
  <path id="Ellipse_1_copy_5" data-name="Ellipse 1 copy 5" class="cls-1" d="M1260.16,41a4.156,4.156,0,1,1-4.16,4.156A4.155,4.155,0,0,1,1260.16,41ZM1274,41a4.156,4.156,0,1,1-4.16,4.156A4.157,4.157,0,0,1,1274,41Zm13.84,0a4.156,4.156,0,1,1-4.15,4.156A4.157,4.157,0,0,1,1287.84,41Zm-27.68,13.844A4.156,4.156,0,1,1,1256,59,4.155,4.155,0,0,1,1260.16,54.844Zm13.84,0A4.156,4.156,0,1,1,1269.84,59,4.157,4.157,0,0,1,1274,54.844Zm13.84,0A4.156,4.156,0,1,1,1283.69,59,4.157,4.157,0,0,1,1287.84,54.844Zm-27.68,13.844a4.156,4.156,0,1,1-4.16,4.156A4.155,4.155,0,0,1,1260.16,68.688Zm13.84,0a4.156,4.156,0,1,1-4.16,4.156A4.157,4.157,0,0,1,1274,68.688Zm13.84,0a4.156,4.156,0,1,1-4.15,4.156A4.157,4.157,0,0,1,1287.84,68.688Z" transform="translate(-1256 -41)"/>
</svg>
